<?xml version="1.0" encoding="UTF-8"?><svg id="Layer_1" xmlns="http://www.w3.org/2000/svg" viewBox="0 0 728 90"><defs><style>.cls-1{fill:#fff;}.cls-2{fill:#db0011;}</style></defs><rect class="cls-2" x="435.89" y="38.15" width="61.13" height="15.46"/><g><path class="cls-1" d="m442.16,45.21h2.27v.83h-2.27v2.29h-1.15v-5.4h3.56v.84h-2.41v1.44Z"/><path class="cls-1" d="m445.29,42.93h1.13v.87h-1.13v-.87Zm.02,1.63h1.09v3.77h-1.09v-3.77Z"/><path class="cls-1" d="m450.05,46.33c0-.52-.04-1.1-.71-1.1s-.79.77-.79,1.19v1.9h-1.09v-3.02c0-.24,0-.49-.03-.74h1.08l.02.57c.34-.43.69-.63,1.24-.63.92,0,1.37.49,1.37,1.39v2.43h-1.09v-1.99Z"/><path class="cls-1" d="m454.75,47.83c-.34.4-.64.58-1.17.58-1.15,0-1.66-.9-1.66-1.95,0-.95.46-1.98,1.63-1.98.52,0,.9.16,1.22.57v-2.11h1.09v4.39c0,.33,0,.67.03,1.01h-1.1l-.03-.5Zm-.9-2.66c-.67,0-.83.69-.83,1.25,0,.6.16,1.29.89,1.29.67,0,.87-.72.87-1.27,0-.59-.23-1.27-.92-1.27Z"/><path class="cls-1" d="m461.03,48.42c-1.25,0-2.04-.72-2.04-1.99s.84-1.97,2.07-1.97,2.02.72,2.02,1.97-.81,1.99-2.05,1.99Zm0-3.3c-.73,0-.9.72-.9,1.32s.17,1.33.9,1.33.92-.73.92-1.33-.19-1.32-.92-1.32Z"/><path class="cls-1" d="m466.47,47.75c-.34.43-.68.63-1.23.63-.93,0-1.37-.49-1.37-1.39v-2.43h1.09v2c0,.52.02,1.1.7,1.1s.81-.6.81-1.15v-1.95h1.09v2.37c0,.46,0,.92.02,1.39h-1.09l-.02-.58Z"/><path class="cls-1" d="m469.94,46.99c0,.44.02.65.53.65.12,0,.22-.02.35-.03v.71c-.26.04-.51.06-.78.06-.75,0-1.16-.19-1.16-1.01v-2.1h-.72v-.72h.72v-.63l1.06-.43v1.06h.89v.72h-.89v1.72Z"/><path class="cls-1" d="m478.95,46.23c0-.51-.07-.99-.71-.99s-.76.5-.76,1.03v2.06h-1.09v-2.09c0-.49-.09-1-.69-1s-.78.49-.78,1.01v2.08h-1.09v-2.51c0-.42-.02-.83-.03-1.25h1.07l.03.59c.29-.46.72-.65,1.26-.65s.98.2,1.19.72c.29-.51.78-.72,1.34-.72.96,0,1.35.6,1.35,1.48v2.34h-1.09v-2.1Z"/><path class="cls-1" d="m482.86,48.42c-1.25,0-2.04-.72-2.04-1.99s.84-1.97,2.07-1.97,2.02.72,2.02,1.97-.81,1.99-2.05,1.99Zm0-3.3c-.73,0-.9.72-.9,1.32s.17,1.33.9,1.33.92-.73.92-1.33-.19-1.32-.92-1.32Z"/><path class="cls-1" d="m487.78,45.48c-.7,0-.98.4-.98,1.07v1.78h-1.09v-2.84c0-.3-.03-.6-.03-.92h1.05l.03.69c.25-.49.62-.72,1.16-.72.06,0,.11,0,.18,0v.95c-.12-.02-.22-.02-.33-.02Z"/><path class="cls-1" d="m490.39,47.76c.44,0,.69-.22.75-.66h1.06c-.13.98-.95,1.31-1.83,1.31-1.22,0-1.91-.69-1.91-1.9s.66-2.04,1.95-2.04c.73,0,1.37.3,1.66,1,.16.37.16.75.16,1.19h-2.72c0,.57.23,1.1.87,1.1Zm.02-2.66c-.54,0-.86.39-.86.93h1.64c0-.57-.26-.93-.78-.93Z"/></g></svg>