<svg xmlns="http://www.w3.org/2000/svg" width="728" height="90" viewBox="0 0 728 90">
  <defs>
    <style>
      .cls-1 {
        fill: #fff;
        fill-rule: evenodd;
      }
    </style>
  </defs>
  <g id="International_Engage_Banner_728x90_Frame_2" data-name="International Engage Banner 728x90 Frame 2">
    <path id="We_make_it_simple_and_easy_for_everyone_to_open_a_bank_account_copy_2" data-name="We make it simple and easy for everyone to open a bank account  copy 2" class="cls-1" d="M1202.44,20.39h-1.19l-2.06,8.307-2.61-8.307h-1.48l-2.55,8.32-2.07-8.32h-1.29l2.51,9.4h1.59l2.52-8.229,2.59,8.229h1.55Zm5.76,6.331a6.749,6.749,0,0,0-.13-1.366,3.37,3.37,0,0,0-.45-1.146,2.407,2.407,0,0,0-.88-0.79,2.78,2.78,0,0,0-1.36-.3,3.257,3.257,0,0,0-1.39.273,2.725,2.725,0,0,0-.97.746,3.012,3.012,0,0,0-.57,1.109,4.671,4.671,0,0,0-.19,1.375,4.372,4.372,0,0,0,.19,1.337,2.849,2.849,0,0,0,.56,1.051,2.578,2.578,0,0,0,.95.681,3.363,3.363,0,0,0,1.33.24,3.216,3.216,0,0,0,1.9-.552,2.485,2.485,0,0,0,.97-1.709h-1.09a1.746,1.746,0,0,1-.55,1.1,1.626,1.626,0,0,1-1.14.4,1.84,1.84,0,0,1-.86-0.188,1.715,1.715,0,0,1-.62-0.514,2.142,2.142,0,0,1-.37-0.741,3.13,3.13,0,0,1-.13-0.871v-0.13h4.8Zm-4.77-.767a2.943,2.943,0,0,1,.18-0.775,2.2,2.2,0,0,1,.37-0.665,1.589,1.589,0,0,1,.57-0.459,1.744,1.744,0,0,1,.79-0.168,1.607,1.607,0,0,1,.77.174,1.52,1.52,0,0,1,.55.459,1.821,1.821,0,0,1,.31.659,2.856,2.856,0,0,1,.1.775h-3.64Zm18.75,3.835V25.941a6.414,6.414,0,0,0-.1-1.111,2.374,2.374,0,0,0-.35-0.884,1.73,1.73,0,0,0-.7-0.585,2.572,2.572,0,0,0-1.13-.215,2.354,2.354,0,0,0-2.27,1.352,2.1,2.1,0,0,0-.81-1.04,2.436,2.436,0,0,0-1.29-.312,2.277,2.277,0,0,0-2.08,1.17l-0.04-1.092h-1.13c0.03,0.754.04,1.5,0.04,2.249v4.316h1.15v-3.64a3.516,3.516,0,0,1,.09-0.793,2.082,2.082,0,0,1,.31-0.683,1.682,1.682,0,0,1,.53-0.474,1.841,1.841,0,0,1,1.54-.026,1.152,1.152,0,0,1,.46.422,1.709,1.709,0,0,1,.22.624,4.6,4.6,0,0,1,.06.761v3.809h1.14v-3.64a3.694,3.694,0,0,1,.09-0.832,1.962,1.962,0,0,1,.27-0.676,1.452,1.452,0,0,1,.52-0.455,1.78,1.78,0,0,1,.82-0.169,1.619,1.619,0,0,1,.75.149,1.14,1.14,0,0,1,.46.4,1.6,1.6,0,0,1,.24.6,4.365,4.365,0,0,1,.06.747v3.874h1.15Zm6.6,0a6.692,6.692,0,0,1-.14-0.748,10.31,10.31,0,0,1-.07-1.176V25.447a2.272,2.272,0,0,0-.62-1.82,2.791,2.791,0,0,0-1.87-.533,4.037,4.037,0,0,0-.9.1,2.358,2.358,0,0,0-.77.319,1.765,1.765,0,0,0-.55.585,2,2,0,0,0-.24.9h1.12a1.2,1.2,0,0,1,.41-0.9,1.562,1.562,0,0,1,.95-0.253,1.354,1.354,0,0,1,1.13.416,1.9,1.9,0,0,1,.32,1.17v0.39c-0.1-.008-0.2-0.015-0.31-0.02s-0.22-.006-0.34-0.006c-0.4,0-.82.022-1.27,0.065a4.274,4.274,0,0,0-1.21.293,2.311,2.311,0,0,0-.92.663,1.79,1.79,0,0,0-.36,1.177,1.82,1.82,0,0,0,.19.871,1.7,1.7,0,0,0,.5.6,2.261,2.261,0,0,0,.74.358,3.227,3.227,0,0,0,.87.117,3.148,3.148,0,0,0,1.26-.234,2.317,2.317,0,0,0,.96-0.832c0.01,0.139.03,0.293,0.05,0.462s0.04,0.323.07,0.462h1Zm-1.29-2.314a2.319,2.319,0,0,1-.24.858,1.5,1.5,0,0,1-.54.6,1.829,1.829,0,0,1-.98.227,1.856,1.856,0,0,1-.55-0.078,1.389,1.389,0,0,1-.46-0.234,1.084,1.084,0,0,1-.32-0.39,1.151,1.151,0,0,1-.12-0.533,1.072,1.072,0,0,1,.28-0.793,1.691,1.691,0,0,1,.68-0.436,3.292,3.292,0,0,1,.88-0.188q0.465-.039.84-0.039h0.26a2.883,2.883,0,0,1,.33.026A7.866,7.866,0,0,1,1227.49,27.475Zm8.47,2.314-3.32-3.744,3.06-2.834h-1.46l-2.95,2.873,3.2,3.705h1.47Zm-4.71,0v-9.4h-1.14v9.4h1.14Zm10.4-3.068a6.749,6.749,0,0,0-.13-1.366,3.189,3.189,0,0,0-.46-1.146,2.3,2.3,0,0,0-.87-0.79,2.807,2.807,0,0,0-1.36-.3,3.257,3.257,0,0,0-1.39.273,2.725,2.725,0,0,0-.97.746,3.012,3.012,0,0,0-.57,1.109,4.671,4.671,0,0,0-.19,1.375,4.372,4.372,0,0,0,.19,1.337,2.849,2.849,0,0,0,.56,1.051,2.5,2.5,0,0,0,.95.681,3.363,3.363,0,0,0,1.33.24,3.216,3.216,0,0,0,1.9-.552,2.485,2.485,0,0,0,.97-1.709h-1.09a1.746,1.746,0,0,1-.55,1.1,1.626,1.626,0,0,1-1.14.4,1.911,1.911,0,0,1-.87-0.188,1.769,1.769,0,0,1-.61-0.514,2.142,2.142,0,0,1-.37-0.741,2.8,2.8,0,0,1-.13-0.871v-0.13h4.8Zm-4.77-.767a2.927,2.927,0,0,1,.17-0.775,2.737,2.737,0,0,1,.37-0.665,1.716,1.716,0,0,1,.58-0.459,1.744,1.744,0,0,1,.79-0.168,1.635,1.635,0,0,1,.77.174,1.609,1.609,0,0,1,.55.459,1.821,1.821,0,0,1,.31.659,2.856,2.856,0,0,1,.1.775h-3.64Zm10.1-4.407V20.39h-1.27v1.157h1.27Zm-0.06,8.242V23.224h-1.15v6.565h1.15Zm4.54-.013V28.905c-0.11.017-.21,0.032-0.31,0.046a2.109,2.109,0,0,1-.3.019,1.527,1.527,0,0,1-.47-0.058,0.5,0.5,0,0,1-.27-0.189,0.678,0.678,0,0,1-.13-0.338c-0.01-.139-0.02-0.308-0.02-0.507V24.017h1.47V23.224h-1.47V21.469l-1.15.481v1.274h-1.28v0.793h1.28v4.316a1.478,1.478,0,0,0,.41,1.17,1.74,1.74,0,0,0,1.19.351,7.343,7.343,0,0,0,1.05-.078h0Zm8.49-2.613a1.523,1.523,0,0,0-.42-0.514,2.38,2.38,0,0,0-.64-0.357,5.944,5.944,0,0,0-.8-0.247l-0.52-.13a3.478,3.478,0,0,1-.99-0.39,0.783,0.783,0,0,1-.41-0.7,0.747,0.747,0,0,1,.13-0.448,1.1,1.1,0,0,1,.33-0.306,1.4,1.4,0,0,1,.43-0.169,2.233,2.233,0,0,1,.46-0.052,1.325,1.325,0,0,1,.93.316,1.216,1.216,0,0,1,.37.907h1.13a2.122,2.122,0,0,0-.21-0.923,1.747,1.747,0,0,0-.51-0.611,2.255,2.255,0,0,0-.76-0.344,3.637,3.637,0,0,0-.92-0.111,4.138,4.138,0,0,0-.88.1,2.355,2.355,0,0,0-.8.324,1.863,1.863,0,0,0-.59.584,1.586,1.586,0,0,0-.23.863,1.549,1.549,0,0,0,.17.746,1.464,1.464,0,0,0,.45.506,2.663,2.663,0,0,0,.64.331q0.36,0.13.72,0.22l0.53,0.13a5.654,5.654,0,0,1,.55.156,1.885,1.885,0,0,1,.45.227,1.164,1.164,0,0,1,.31.318,0.868,0.868,0,0,1,.11.441,0.91,0.91,0,0,1-.14.506,1.175,1.175,0,0,1-.35.344,1.578,1.578,0,0,1-.47.2,2.2,2.2,0,0,1-.52.065,1.6,1.6,0,0,1-1.06-.325,1.356,1.356,0,0,1-.41-1.014h-1.15a2.149,2.149,0,0,0,.21,1,1.675,1.675,0,0,0,.55.656,2.188,2.188,0,0,0,.82.364,4.251,4.251,0,0,0,.98.11,4.206,4.206,0,0,0,.96-0.11,2.8,2.8,0,0,0,.86-0.351,1.968,1.968,0,0,0,.62-0.631,1.871,1.871,0,0,0,.23-0.949A1.488,1.488,0,0,0,1259.95,27.163Zm2.4-5.616V20.39h-1.28v1.157h1.28Zm-0.07,8.242V23.224h-1.14v6.565h1.14Zm11.34,0V25.941a6.414,6.414,0,0,0-.1-1.111,2.374,2.374,0,0,0-.35-0.884,1.73,1.73,0,0,0-.7-0.585,2.572,2.572,0,0,0-1.13-.215,2.354,2.354,0,0,0-2.27,1.352,2.1,2.1,0,0,0-.81-1.04,2.436,2.436,0,0,0-1.29-.312,2.288,2.288,0,0,0-2.08,1.17l-0.04-1.092h-1.13c0.03,0.754.04,1.5,0.04,2.249v4.316h1.15v-3.64a3.516,3.516,0,0,1,.09-0.793,2.082,2.082,0,0,1,.31-0.683,1.682,1.682,0,0,1,.53-0.474,1.841,1.841,0,0,1,1.54-.026,1.152,1.152,0,0,1,.46.422,1.709,1.709,0,0,1,.22.624,4.6,4.6,0,0,1,.06.761v3.809h1.14v-3.64a3.694,3.694,0,0,1,.09-0.832,1.794,1.794,0,0,1,.28-0.676,1.373,1.373,0,0,1,.52-0.455,1.736,1.736,0,0,1,.81-0.169,1.619,1.619,0,0,1,.75.149,1.14,1.14,0,0,1,.46.4,1.6,1.6,0,0,1,.24.6,4.365,4.365,0,0,1,.06.747v3.874h1.15Zm7.41-4.628a3.063,3.063,0,0,0-.5-1.053,2.38,2.38,0,0,0-.87-0.728,2.964,2.964,0,0,0-2.54.026,2.4,2.4,0,0,0-.93.949l-0.04-1.131h-1.13q0.03,0.468.03,0.942c0.01,0.317.01,0.626,0.01,0.93v7.163h1.14V28.8a3.111,3.111,0,0,0,.89.832,2.334,2.334,0,0,0,1.19.273,2.679,2.679,0,0,0,1.29-.3,2.81,2.81,0,0,0,.91-0.787,3.462,3.462,0,0,0,.54-1.118A4.7,4.7,0,0,0,1281.03,25.161Zm-1.14,2.262a2.535,2.535,0,0,1-.33.838,1.815,1.815,0,0,1-.6.6,1.738,1.738,0,0,1-.94.234,1.55,1.55,0,0,1-.88-0.234,1.93,1.93,0,0,1-.57-0.6,2.483,2.483,0,0,1-.29-0.832,4.712,4.712,0,0,1-.09-0.9,4.962,4.962,0,0,1,.1-0.936,2.55,2.55,0,0,1,.34-0.838,1.815,1.815,0,0,1,.6-0.6,1.713,1.713,0,0,1,.92-0.234,1.542,1.542,0,0,1,.88.241,1.786,1.786,0,0,1,.57.611,2.741,2.741,0,0,1,.3.825,4.617,4.617,0,0,1,.09.9A4.962,4.962,0,0,1,1279.89,27.423Zm3.44,2.366v-9.4h-1.15v9.4h1.15Zm6.94-3.068a6.749,6.749,0,0,0-.13-1.366,3.189,3.189,0,0,0-.46-1.146,2.3,2.3,0,0,0-.87-0.79,2.807,2.807,0,0,0-1.36-.3,3.257,3.257,0,0,0-1.39.273,2.725,2.725,0,0,0-.97.746,3.012,3.012,0,0,0-.57,1.109,4.671,4.671,0,0,0-.19,1.375,4.372,4.372,0,0,0,.19,1.337,2.849,2.849,0,0,0,.56,1.051,2.5,2.5,0,0,0,.95.681,3.363,3.363,0,0,0,1.33.24,3.216,3.216,0,0,0,1.9-.552,2.485,2.485,0,0,0,.97-1.709h-1.09a1.746,1.746,0,0,1-.55,1.1,1.626,1.626,0,0,1-1.14.4,1.911,1.911,0,0,1-.87-0.188,1.769,1.769,0,0,1-.61-0.514,2.142,2.142,0,0,1-.37-0.741,2.8,2.8,0,0,1-.13-0.871v-0.13h4.8Zm-4.77-.767a2.927,2.927,0,0,1,.17-0.775,2.737,2.737,0,0,1,.37-0.665,1.716,1.716,0,0,1,.58-0.459,1.744,1.744,0,0,1,.79-0.168,1.635,1.635,0,0,1,.77.174,1.609,1.609,0,0,1,.55.459,1.821,1.821,0,0,1,.31.659,2.856,2.856,0,0,1,.1.775h-3.64Zm14.05,3.835a5.286,5.286,0,0,1-.13-0.748,8.344,8.344,0,0,1-.08-1.176V25.447a2.3,2.3,0,0,0-.61-1.82,2.839,2.839,0,0,0-1.88-.533,4.1,4.1,0,0,0-.9.1,2.358,2.358,0,0,0-.77.319,1.765,1.765,0,0,0-.55.585,2,2,0,0,0-.24.9h1.12a1.2,1.2,0,0,1,.41-0.9,1.582,1.582,0,0,1,.95-0.253,1.341,1.341,0,0,1,1.13.416,1.9,1.9,0,0,1,.32,1.17v0.39c-0.1-.008-0.2-0.015-0.31-0.02s-0.22-.006-0.34-0.006q-0.6,0-1.26.065a4.261,4.261,0,0,0-1.22.293,2.384,2.384,0,0,0-.92.663,1.79,1.79,0,0,0-.36,1.177,1.82,1.82,0,0,0,.19.871,1.632,1.632,0,0,0,.51.6,2.118,2.118,0,0,0,.73.358,3.227,3.227,0,0,0,.87.117,3.148,3.148,0,0,0,1.26-.234,2.2,2.2,0,0,0,.96-0.832c0.01,0.139.03,0.293,0.05,0.462s0.04,0.323.07,0.462h1Zm-1.29-2.314a2.319,2.319,0,0,1-.24.858,1.432,1.432,0,0,1-.54.6,1.829,1.829,0,0,1-.98.227,1.9,1.9,0,0,1-.55-0.078,1.389,1.389,0,0,1-.46-0.234,1.2,1.2,0,0,1-.32-0.39,1.151,1.151,0,0,1-.12-0.533,1.072,1.072,0,0,1,.28-0.793,1.762,1.762,0,0,1,.68-0.436,3.292,3.292,0,0,1,.88-0.188q0.465-.039.84-0.039h0.26a2.883,2.883,0,0,1,.33.026A7.866,7.866,0,0,1,1298.26,27.475Zm8.23,2.314V25.707a3.007,3.007,0,0,0-.52-1.885,2.178,2.178,0,0,0-1.82-.676,2.514,2.514,0,0,0-1.22.279,2.688,2.688,0,0,0-.92.852l-0.04-1.053h-1.13c0,0.1,0,.21.01,0.345s0,0.277.01,0.429,0.01,0.308.01,0.468,0.01,0.31.01,0.449v4.875h1.14V26.513a4.582,4.582,0,0,1,.09-0.9,2.482,2.482,0,0,1,.28-0.8,1.7,1.7,0,0,1,.55-0.572,1.657,1.657,0,0,1,.89-0.221,1.616,1.616,0,0,1,.82.175,1.189,1.189,0,0,1,.47.468,1.975,1.975,0,0,1,.19.676,7.015,7.015,0,0,1,.04.813v3.64h1.14Zm7.13,0q-0.03-.481-0.03-0.962c-0.01-.321-0.01-0.637-0.01-0.949V20.39h-1.15v3.874a2.294,2.294,0,0,0-.89-0.9,2.63,2.63,0,0,0-1.25-.273,2.6,2.6,0,0,0-1.26.286,2.567,2.567,0,0,0-.88.754,3.047,3.047,0,0,0-.52,1.079,4.386,4.386,0,0,0-.17,1.248,4.613,4.613,0,0,0,.17,1.287,3.169,3.169,0,0,0,.52,1.105,2.541,2.541,0,0,0,.89.767,2.779,2.779,0,0,0,1.29.286,2.439,2.439,0,0,0,1.21-.273,2.826,2.826,0,0,0,.89-0.845l0.07,1h1.12Zm-1.26-2.379a2.481,2.481,0,0,1-.29.826,1.823,1.823,0,0,1-.57.6,1.528,1.528,0,0,1-.88.234,1.692,1.692,0,0,1-1.53-.819,2.463,2.463,0,0,1-.33-0.825,4.915,4.915,0,0,1-.1-0.942,4.716,4.716,0,0,1,.09-0.9,2.727,2.727,0,0,1,.29-0.832,1.757,1.757,0,0,1,.56-0.611,1.5,1.5,0,0,1,.88-0.241,1.713,1.713,0,0,1,.92.234,1.945,1.945,0,0,1,.61.6,2.535,2.535,0,0,1,.33.838,4.271,4.271,0,0,1,.11.936A4.613,4.613,0,0,1,1312.36,27.41Zm11.28-.689a6.749,6.749,0,0,0-.13-1.366,3.37,3.37,0,0,0-.45-1.146,2.407,2.407,0,0,0-.88-0.79,2.78,2.78,0,0,0-1.36-.3,3.257,3.257,0,0,0-1.39.273,2.725,2.725,0,0,0-.97.746,3.012,3.012,0,0,0-.57,1.109,4.671,4.671,0,0,0-.19,1.375,4.372,4.372,0,0,0,.19,1.337,2.849,2.849,0,0,0,.56,1.051,2.578,2.578,0,0,0,.95.681,3.363,3.363,0,0,0,1.33.24,3.216,3.216,0,0,0,1.9-.552,2.485,2.485,0,0,0,.97-1.709h-1.09a1.746,1.746,0,0,1-.55,1.1,1.626,1.626,0,0,1-1.14.4,1.84,1.84,0,0,1-.86-0.188,1.715,1.715,0,0,1-.62-0.514,2.142,2.142,0,0,1-.37-0.741,3.13,3.13,0,0,1-.13-0.871v-0.13h4.8Zm-4.77-.767a2.943,2.943,0,0,1,.18-0.775,2.2,2.2,0,0,1,.37-0.665,1.589,1.589,0,0,1,.57-0.459,1.744,1.744,0,0,1,.79-0.168,1.607,1.607,0,0,1,.77.174,1.52,1.52,0,0,1,.55.459,1.821,1.821,0,0,1,.31.659,2.856,2.856,0,0,1,.1.775h-3.64Zm10.93,3.835a5.286,5.286,0,0,1-.13-0.748,8.344,8.344,0,0,1-.08-1.176V25.447a2.3,2.3,0,0,0-.61-1.82,2.821,2.821,0,0,0-1.88-.533,4.1,4.1,0,0,0-.9.1,2.452,2.452,0,0,0-.77.319,1.873,1.873,0,0,0-.55.585,2,2,0,0,0-.24.9h1.12a1.2,1.2,0,0,1,.41-0.9,1.582,1.582,0,0,1,.95-0.253,1.341,1.341,0,0,1,1.13.416,1.9,1.9,0,0,1,.32,1.17v0.39c-0.1-.008-0.2-0.015-0.31-0.02s-0.22-.006-0.34-0.006q-0.6,0-1.26.065a4.261,4.261,0,0,0-1.22.293,2.384,2.384,0,0,0-.92.663,1.79,1.79,0,0,0-.36,1.177,1.82,1.82,0,0,0,.19.871,1.731,1.731,0,0,0,.51.6,2.118,2.118,0,0,0,.73.358,3.227,3.227,0,0,0,.87.117,3.148,3.148,0,0,0,1.26-.234,2.2,2.2,0,0,0,.96-0.832c0.01,0.139.03,0.293,0.05,0.462s0.05,0.323.07,0.462h1Zm-1.28-2.314a2.776,2.776,0,0,1-.24.858,1.526,1.526,0,0,1-.55.6,1.829,1.829,0,0,1-.98.227,1.955,1.955,0,0,1-.55-0.078,1.389,1.389,0,0,1-.46-0.234,1.2,1.2,0,0,1-.32-0.39,1.151,1.151,0,0,1-.12-0.533,1.114,1.114,0,0,1,.28-0.793,1.762,1.762,0,0,1,.68-0.436,3.378,3.378,0,0,1,.88-0.188q0.465-.039.84-0.039h0.26a2.883,2.883,0,0,1,.33.026C1328.57,26.83,1328.55,27.155,1328.52,27.475Zm7.22-.312a1.523,1.523,0,0,0-.42-0.514,2.38,2.38,0,0,0-.64-0.357,5.944,5.944,0,0,0-.8-0.247l-0.52-.13a3.478,3.478,0,0,1-.99-0.39,0.783,0.783,0,0,1-.41-0.7,0.747,0.747,0,0,1,.13-0.448,1.1,1.1,0,0,1,.33-0.306,1.4,1.4,0,0,1,.43-0.169,2.233,2.233,0,0,1,.46-0.052,1.325,1.325,0,0,1,.93.316,1.216,1.216,0,0,1,.37.907h1.13a2.122,2.122,0,0,0-.21-0.923,1.747,1.747,0,0,0-.51-0.611,2.255,2.255,0,0,0-.76-0.344,3.637,3.637,0,0,0-.92-0.111,4.138,4.138,0,0,0-.88.1,2.355,2.355,0,0,0-.8.324,1.863,1.863,0,0,0-.59.584,1.586,1.586,0,0,0-.23.863,1.549,1.549,0,0,0,.17.746,1.464,1.464,0,0,0,.45.506,2.663,2.663,0,0,0,.64.331q0.36,0.13.72,0.22l0.53,0.13a5.654,5.654,0,0,1,.55.156,1.885,1.885,0,0,1,.45.227,1.164,1.164,0,0,1,.31.318,0.868,0.868,0,0,1,.11.441,0.91,0.91,0,0,1-.14.506,1.175,1.175,0,0,1-.35.344,1.578,1.578,0,0,1-.47.2,2.2,2.2,0,0,1-.52.065,1.6,1.6,0,0,1-1.06-.325,1.356,1.356,0,0,1-.41-1.014h-1.15a2.149,2.149,0,0,0,.21,1,1.675,1.675,0,0,0,.55.656,2.188,2.188,0,0,0,.82.364,4.251,4.251,0,0,0,.98.11,4.206,4.206,0,0,0,.96-0.11,2.8,2.8,0,0,0,.86-0.351,1.968,1.968,0,0,0,.62-0.631,1.871,1.871,0,0,0,.23-0.949A1.488,1.488,0,0,0,1335.74,27.163Zm6.87-3.939h-1.16l-2.05,5.369-2.07-5.369h-1.3l2.79,6.552-1.07,2.483h1.14Zm6.84-2.041V20.351c-0.33-.026-0.65-0.039-0.95-0.039a2.206,2.206,0,0,0-.95.169,1.25,1.25,0,0,0-.54.474,1.963,1.963,0,0,0-.23.728,8.625,8.625,0,0,0-.05.917v0.624h-1.31v0.793h1.31v5.772h1.14V24.017h1.47V23.224h-1.47v-1.2a0.736,0.736,0,0,1,.3-0.7,1.516,1.516,0,0,1,.77-0.169c0.09,0,.17,0,0.25.006s0.17,0.011.26,0.02h0Zm6.18,3.913a2.878,2.878,0,0,0-.62-1.073,2.8,2.8,0,0,0-1-.7,3.622,3.622,0,0,0-1.39-.247,3.5,3.5,0,0,0-1.37.253,2.951,2.951,0,0,0-1.02.7,3.061,3.061,0,0,0-.64,1.073,4,4,0,0,0-.22,1.365,4.376,4.376,0,0,0,.21,1.378,3.154,3.154,0,0,0,.63,1.1,2.809,2.809,0,0,0,1.01.721,3.528,3.528,0,0,0,1.39.26,3.356,3.356,0,0,0,1.37-.266,2.971,2.971,0,0,0,1.02-.735,3.41,3.41,0,0,0,.63-1.1A4.562,4.562,0,0,0,1355.63,25.1Zm-1.11,2.329a2.6,2.6,0,0,1-.36.867,1.9,1.9,0,0,1-.63.632,1.685,1.685,0,0,1-.93.241,1.744,1.744,0,0,1-.94-0.241,2,2,0,0,1-.62-0.625,2.724,2.724,0,0,1-.35-0.86,3.89,3.89,0,0,1-.11-0.958,3.74,3.74,0,0,1,.11-0.945,2.505,2.505,0,0,1,.35-0.827,1.813,1.813,0,0,1,.63-0.587,2.083,2.083,0,0,1,1.87,0,1.813,1.813,0,0,1,.63.587,2.505,2.505,0,0,1,.35.827,3.74,3.74,0,0,1,.11.945A3.835,3.835,0,0,1,1354.52,27.425Zm5.81-3.135V23.211c-0.06-.008-0.11-0.015-0.18-0.019s-0.13-.007-0.19-0.007a2.465,2.465,0,0,0-1.16.254,2.1,2.1,0,0,0-.84.838l-0.05-1.053h-1.12c0.03,0.642.04,1.283,0.04,1.924v4.641h1.14V26.253a2.475,2.475,0,0,1,.39-1.476,1.631,1.631,0,0,1,1.41-.54c0.09,0,.19,0,0.28.013a2.747,2.747,0,0,1,.28.039h0Zm9.15,2.431a6.749,6.749,0,0,0-.13-1.366,3.189,3.189,0,0,0-.46-1.146,2.3,2.3,0,0,0-.87-0.79,2.807,2.807,0,0,0-1.36-.3,3.257,3.257,0,0,0-1.39.273,2.64,2.64,0,0,0-.97.746,3.012,3.012,0,0,0-.57,1.109,4.671,4.671,0,0,0-.19,1.375,4.372,4.372,0,0,0,.19,1.337,2.849,2.849,0,0,0,.56,1.051,2.542,2.542,0,0,0,.94.681,3.45,3.45,0,0,0,1.34.24,3.184,3.184,0,0,0,1.89-.552,2.5,2.5,0,0,0,.98-1.709h-1.09a1.746,1.746,0,0,1-.55,1.1,1.626,1.626,0,0,1-1.14.4,1.911,1.911,0,0,1-.87-0.188,1.769,1.769,0,0,1-.61-0.514,2.142,2.142,0,0,1-.37-0.741,2.8,2.8,0,0,1-.13-0.871v-0.13h4.8Zm-4.77-.767a2.927,2.927,0,0,1,.17-0.775,2.44,2.44,0,0,1,.37-0.665,1.716,1.716,0,0,1,.58-0.459,1.744,1.744,0,0,1,.79-0.168,1.635,1.635,0,0,1,.77.174,1.609,1.609,0,0,1,.55.459,1.821,1.821,0,0,1,.31.659,2.856,2.856,0,0,1,.1.775h-3.64Zm11.26-2.73h-1.17l-2.08,5.46-2.05-5.46h-1.3l2.67,6.565h1.2Zm5.79,3.5a6.749,6.749,0,0,0-.13-1.366,3.008,3.008,0,0,0-.45-1.146,2.458,2.458,0,0,0-.87-0.79,2.849,2.849,0,0,0-1.37-.3,3.289,3.289,0,0,0-1.39.273,2.725,2.725,0,0,0-.97.746,3.347,3.347,0,0,0-.57,1.109,5.027,5.027,0,0,0-.19,1.375,4.7,4.7,0,0,0,.19,1.337,3.022,3.022,0,0,0,.57,1.051,2.463,2.463,0,0,0,.94.681,3.4,3.4,0,0,0,1.33.24,3.194,3.194,0,0,0,1.9-.552,2.45,2.45,0,0,0,.97-1.709h-1.09a1.787,1.787,0,0,1-.54,1.1,1.669,1.669,0,0,1-1.15.4,1.868,1.868,0,0,1-.86-0.188,1.8,1.8,0,0,1-.62-0.514,2.332,2.332,0,0,1-.37-0.741,3.126,3.126,0,0,1-.12-0.871v-0.13h4.79Zm-4.77-.767a3.4,3.4,0,0,1,.18-0.775,2.2,2.2,0,0,1,.37-0.665,1.679,1.679,0,0,1,.57-0.459,1.774,1.774,0,0,1,.79-0.168,1.648,1.648,0,0,1,.78.174,1.573,1.573,0,0,1,.54.459,1.838,1.838,0,0,1,.32.659,3.308,3.308,0,0,1,.09.775h-3.64Zm9.27-1.664V23.211c-0.05-.008-0.11-0.015-0.17-0.019s-0.13-.007-0.19-0.007a2.536,2.536,0,0,0-1.17.254,2.148,2.148,0,0,0-.83.838l-0.06-1.053h-1.11q0.03,0.962.03,1.924v4.641h1.15V26.253a2.475,2.475,0,0,1,.39-1.476,1.622,1.622,0,0,1,1.4-.54c0.1,0,.19,0,0.29.013a2.546,2.546,0,0,1,.27.039h0Zm6.25-1.066h-1.15l-2.06,5.369-2.06-5.369h-1.3l2.79,6.552-1.08,2.483h1.15Zm6.13,1.872a3.02,3.02,0,0,0-.62-1.073,2.754,2.754,0,0,0-1.01-.7,3.93,3.93,0,0,0-2.76.006,2.951,2.951,0,0,0-1.02.7,3.061,3.061,0,0,0-.64,1.073,4.255,4.255,0,0,0-.22,1.365,4.108,4.108,0,0,0,.22,1.378,3.134,3.134,0,0,0,.62,1.1,2.847,2.847,0,0,0,1.02.721,3.459,3.459,0,0,0,1.39.26,3.307,3.307,0,0,0,1.36-.266,2.971,2.971,0,0,0,1.02-.735,3.079,3.079,0,0,0,.63-1.1A4.46,4.46,0,0,0,1398.64,25.1Zm-1.11,2.329a3.088,3.088,0,0,1-.36.867,2.11,2.11,0,0,1-.63.632,1.933,1.933,0,0,1-1.87,0,1.925,1.925,0,0,1-.63-0.625,2.98,2.98,0,0,1-.35-0.86,4.437,4.437,0,0,1-.11-0.958,4.259,4.259,0,0,1,.11-0.945,2.734,2.734,0,0,1,.35-0.827,1.813,1.813,0,0,1,.63-0.587,1.893,1.893,0,0,1,.94-0.222,1.854,1.854,0,0,1,.93.222,1.761,1.761,0,0,1,.64.587,2.734,2.734,0,0,1,.35.827,4.259,4.259,0,0,1,.11.945A4.383,4.383,0,0,1,1397.53,27.425Zm7.92,2.364V25.707a3.007,3.007,0,0,0-.53-1.885,2.156,2.156,0,0,0-1.81-.676,2.527,2.527,0,0,0-1.23.279,2.662,2.662,0,0,0-.91.852l-0.04-1.053h-1.13v0.345c0.01,0.134.01,0.277,0.01,0.429s0.01,0.308.02,0.468v5.324h1.15V26.513a5.475,5.475,0,0,1,.08-0.9,2.492,2.492,0,0,1,.29-0.8,1.614,1.614,0,0,1,.55-0.572,1.949,1.949,0,0,1,1.71-.046,1.163,1.163,0,0,1,.46.468,1.78,1.78,0,0,1,.2.676c0.02,0.256.04,0.526,0.04,0.813v3.64h1.14Zm6.9-3.068a6.749,6.749,0,0,0-.13-1.366,3.178,3.178,0,0,0-.45-1.146,2.458,2.458,0,0,0-.87-0.79,2.849,2.849,0,0,0-1.37-.3,3.257,3.257,0,0,0-1.39.273,2.725,2.725,0,0,0-.97.746,3.347,3.347,0,0,0-.57,1.109,4.671,4.671,0,0,0-.19,1.375,4.372,4.372,0,0,0,.19,1.337,2.867,2.867,0,0,0,.57,1.051,2.463,2.463,0,0,0,.94.681,3.4,3.4,0,0,0,1.33.24,3.194,3.194,0,0,0,1.9-.552,2.485,2.485,0,0,0,.97-1.709h-1.09a1.787,1.787,0,0,1-.54,1.1,1.669,1.669,0,0,1-1.15.4,1.84,1.84,0,0,1-.86-0.188,1.715,1.715,0,0,1-.62-0.514,2.332,2.332,0,0,1-.37-0.741,3.126,3.126,0,0,1-.12-0.871v-0.13h4.79Zm-4.77-.767a3.4,3.4,0,0,1,.18-0.775,2.2,2.2,0,0,1,.37-0.665,1.589,1.589,0,0,1,.57-0.459,1.774,1.774,0,0,1,.79-0.168,1.648,1.648,0,0,1,.78.174,1.573,1.573,0,0,1,.54.459,1.67,1.67,0,0,1,.31.659,2.856,2.856,0,0,1,.1.775h-3.64Zm11.96,3.822V28.905c-0.11.017-.21,0.032-0.31,0.046a2.325,2.325,0,0,1-.3.019,1.484,1.484,0,0,1-.47-0.058,0.574,0.574,0,0,1-.28-0.189,0.783,0.783,0,0,1-.12-0.338,3.624,3.624,0,0,1-.03-0.507V24.017h1.47V23.224h-1.47V21.469l-1.14.481v1.274h-1.29v0.793h1.29v4.316a1.476,1.476,0,0,0,.4,1.17,1.787,1.787,0,0,0,1.2.351,7.343,7.343,0,0,0,1.05-.078h0Zm6.54-4.68a2.878,2.878,0,0,0-.62-1.073,2.754,2.754,0,0,0-1.01-.7,3.6,3.6,0,0,0-1.38-.247,3.5,3.5,0,0,0-1.37.253,2.9,2.9,0,0,0-1.03.7,3.041,3.041,0,0,0-.63,1.073,4,4,0,0,0-.22,1.365,4.376,4.376,0,0,0,.21,1.378,3.006,3.006,0,0,0,.63,1.1,2.809,2.809,0,0,0,1.01.721,3.493,3.493,0,0,0,1.39.26,3.356,3.356,0,0,0,1.37-.266,2.932,2.932,0,0,0,1.01-.735,3.079,3.079,0,0,0,.63-1.1,4.011,4.011,0,0,0,.22-1.358A4.3,4.3,0,0,0,1426.08,25.1Zm-1.11,2.329a2.6,2.6,0,0,1-.36.867,1.9,1.9,0,0,1-.63.632,1.685,1.685,0,0,1-.93.241,1.744,1.744,0,0,1-.94-0.241,1.9,1.9,0,0,1-.62-0.625,3,3,0,0,1-.36-0.86,4.437,4.437,0,0,1-.11-0.958,4.259,4.259,0,0,1,.11-0.945,2.75,2.75,0,0,1,.36-0.827,1.813,1.813,0,0,1,.63-0.587,2.083,2.083,0,0,1,1.87,0,1.813,1.813,0,0,1,.63.587,2.505,2.505,0,0,1,.35.827,4.259,4.259,0,0,1,.11.945A4.383,4.383,0,0,1,1424.97,27.425Zm11.21-2.329a2.878,2.878,0,0,0-.62-1.073,2.754,2.754,0,0,0-1.01-.7,3.6,3.6,0,0,0-1.38-.247,3.5,3.5,0,0,0-1.37.253,2.774,2.774,0,0,0-1.02.7,2.919,2.919,0,0,0-.64,1.073,4,4,0,0,0-.22,1.365,4.376,4.376,0,0,0,.21,1.378,3.006,3.006,0,0,0,.63,1.1,2.809,2.809,0,0,0,1.01.721,3.528,3.528,0,0,0,1.39.26,3.356,3.356,0,0,0,1.37-.266,2.841,2.841,0,0,0,1.01-.735,3.258,3.258,0,0,0,.64-1.1A4.562,4.562,0,0,0,1436.18,25.1Zm-1.11,2.329a2.6,2.6,0,0,1-.36.867,1.9,1.9,0,0,1-.63.632,1.685,1.685,0,0,1-.93.241,1.744,1.744,0,0,1-.94-0.241,1.9,1.9,0,0,1-.62-0.625,2.724,2.724,0,0,1-.35-0.86,3.89,3.89,0,0,1-.11-0.958,3.74,3.74,0,0,1,.11-0.945,2.505,2.505,0,0,1,.35-0.827,1.813,1.813,0,0,1,.63-0.587,2.083,2.083,0,0,1,1.87,0,1.813,1.813,0,0,1,.63.587,2.505,2.505,0,0,1,.35.827,4.259,4.259,0,0,1,.11.945A4.383,4.383,0,0,1,1435.07,27.425Zm8.28-2.264a3.063,3.063,0,0,0-.5-1.053,2.556,2.556,0,0,0-.87-0.728,2.644,2.644,0,0,0-1.24-.273,2.706,2.706,0,0,0-1.31.3,2.449,2.449,0,0,0-.92.949l-0.04-1.131h-1.13q0.03,0.468.03,0.942c0.01,0.317.01,0.626,0.01,0.93v7.163h1.14V28.8a3.111,3.111,0,0,0,.89.832,2.32,2.32,0,0,0,1.18.273,2.625,2.625,0,0,0,1.29-.3,2.845,2.845,0,0,0,.92-0.787,3.462,3.462,0,0,0,.54-1.118A4.977,4.977,0,0,0,1443.35,25.161Zm-1.14,2.262a2.772,2.772,0,0,1-.33.838,1.815,1.815,0,0,1-.6.6,1.762,1.762,0,0,1-.94.234,1.55,1.55,0,0,1-.88-0.234,1.823,1.823,0,0,1-.57-0.6,2.736,2.736,0,0,1-.3-0.832,5.641,5.641,0,0,1-.08-0.9,4.256,4.256,0,0,1,.1-0.936,2.772,2.772,0,0,1,.33-0.838,1.945,1.945,0,0,1,.61-0.6,1.713,1.713,0,0,1,.92-0.234,1.542,1.542,0,0,1,.88.241,1.786,1.786,0,0,1,.57.611,3.028,3.028,0,0,1,.29.825,4.617,4.617,0,0,1,.09.9A4.946,4.946,0,0,1,1442.21,27.423Zm7.75-.7a6.749,6.749,0,0,0-.13-1.366,3.178,3.178,0,0,0-.45-1.146,2.458,2.458,0,0,0-.87-0.79,2.849,2.849,0,0,0-1.37-.3,3.257,3.257,0,0,0-1.39.273,2.725,2.725,0,0,0-.97.746,3.347,3.347,0,0,0-.57,1.109,4.671,4.671,0,0,0-.19,1.375,4.372,4.372,0,0,0,.19,1.337,2.867,2.867,0,0,0,.57,1.051,2.463,2.463,0,0,0,.94.681,3.363,3.363,0,0,0,1.33.24,3.194,3.194,0,0,0,1.9-.552,2.485,2.485,0,0,0,.97-1.709h-1.09a1.787,1.787,0,0,1-.54,1.1,1.669,1.669,0,0,1-1.15.4,1.84,1.84,0,0,1-.86-0.188,1.715,1.715,0,0,1-.62-0.514,2.142,2.142,0,0,1-.37-0.741,3.13,3.13,0,0,1-.13-0.871v-0.13h4.8Zm-4.77-.767a3.4,3.4,0,0,1,.18-0.775,2.2,2.2,0,0,1,.37-0.665,1.589,1.589,0,0,1,.57-0.459,1.744,1.744,0,0,1,.79-0.168,1.676,1.676,0,0,1,.78.174,1.573,1.573,0,0,1,.54.459,1.821,1.821,0,0,1,.31.659,2.856,2.856,0,0,1,.1.775h-3.64Zm11.39,3.835V25.707a3.007,3.007,0,0,0-.53-1.885,2.156,2.156,0,0,0-1.81-.676,2.527,2.527,0,0,0-1.23.279,2.78,2.78,0,0,0-.92.852l-0.03-1.053h-1.14c0,0.1.01,0.21,0.01,0.345s0.01,0.277.01,0.429,0.01,0.308.02,0.468v5.324h1.15V26.513a5.475,5.475,0,0,1,.08-0.9,2.492,2.492,0,0,1,.29-0.8,1.542,1.542,0,0,1,1.43-.793,1.657,1.657,0,0,1,.83.175,1.163,1.163,0,0,1,.46.468,1.78,1.78,0,0,1,.2.676q0.03,0.384.03,0.813v3.64h1.15Zm9.72,0a5.286,5.286,0,0,1-.13-0.748,8.344,8.344,0,0,1-.08-1.176V25.447a2.3,2.3,0,0,0-.61-1.82,2.821,2.821,0,0,0-1.88-.533,4.1,4.1,0,0,0-.9.1,2.452,2.452,0,0,0-.77.319,1.873,1.873,0,0,0-.55.585,2,2,0,0,0-.24.9h1.12a1.2,1.2,0,0,1,.41-0.9,1.582,1.582,0,0,1,.95-0.253,1.341,1.341,0,0,1,1.13.416,1.9,1.9,0,0,1,.32,1.17v0.39c-0.1-.008-0.2-0.015-0.31-0.02s-0.22-.006-0.34-0.006q-0.6,0-1.26.065a4.261,4.261,0,0,0-1.22.293,2.384,2.384,0,0,0-.92.663,1.79,1.79,0,0,0-.36,1.177,1.82,1.82,0,0,0,.19.871,1.731,1.731,0,0,0,.51.6,2.118,2.118,0,0,0,.73.358,3.227,3.227,0,0,0,.87.117,3.148,3.148,0,0,0,1.26-.234,2.2,2.2,0,0,0,.96-0.832c0.01,0.139.03,0.293,0.05,0.462s0.05,0.323.07,0.462h1Zm-1.28-2.314a2.776,2.776,0,0,1-.24.858,1.526,1.526,0,0,1-.55.6,1.829,1.829,0,0,1-.98.227,1.955,1.955,0,0,1-.55-0.078,1.389,1.389,0,0,1-.46-0.234,1.2,1.2,0,0,1-.32-0.39,1.151,1.151,0,0,1-.12-0.533,1.114,1.114,0,0,1,.28-0.793,1.762,1.762,0,0,1,.68-0.436,3.378,3.378,0,0,1,.88-0.188q0.465-.039.84-0.039h0.26a2.883,2.883,0,0,1,.33.026C1465.07,26.83,1465.05,27.155,1465.02,27.475Zm11.7-2.314a3.134,3.134,0,0,0-.5-1.059,2.492,2.492,0,0,0-.86-0.735,2.658,2.658,0,0,0-1.25-.273,2.432,2.432,0,0,0-2.21,1.235l-0.01-3.939h-1.14v7.488c0,0.321,0,.639-0.01.956s-0.01.635-.03,0.956h1.12l0.06-1a3.047,3.047,0,0,0,.88.838,2.3,2.3,0,0,0,1.18.279,2.692,2.692,0,0,0,1.3-.3,2.845,2.845,0,0,0,.92-0.787,3.462,3.462,0,0,0,.54-1.118A4.977,4.977,0,0,0,1476.72,25.161Zm-1.14,2.268a2.463,2.463,0,0,1-.33.825,1.694,1.694,0,0,1-1.54.819,1.55,1.55,0,0,1-.88-0.234,1.823,1.823,0,0,1-.57-0.6,2.738,2.738,0,0,1-.3-0.826,5.519,5.519,0,0,1-.08-0.9,4.256,4.256,0,0,1,.1-0.936,2.786,2.786,0,0,1,.34-0.838,1.945,1.945,0,0,1,.61-0.6,1.725,1.725,0,0,1,.93-0.234,1.531,1.531,0,0,1,.87.241,1.839,1.839,0,0,1,.56.617,2.357,2.357,0,0,1,.3.832,4.617,4.617,0,0,1,.09.9A4.915,4.915,0,0,1,1475.58,27.43Zm7.45,2.36a7.353,7.353,0,0,1-.13-0.748,8.436,8.436,0,0,1-.07-1.176V25.447a2.306,2.306,0,0,0-.62-1.82,2.821,2.821,0,0,0-1.88-.533,4.1,4.1,0,0,0-.9.1,2.3,2.3,0,0,0-.76.319,1.793,1.793,0,0,0-.56.585,2,2,0,0,0-.24.9h1.12a1.2,1.2,0,0,1,.41-0.9,1.594,1.594,0,0,1,.96-0.253,1.332,1.332,0,0,1,1.12.416,1.9,1.9,0,0,1,.32,1.17v0.39c-0.1-.008-0.2-0.015-0.31-0.02s-0.22-.006-0.34-0.006q-0.6,0-1.26.065a4.344,4.344,0,0,0-1.22.293,2.278,2.278,0,0,0-.91.663,1.741,1.741,0,0,0-.37,1.177,1.82,1.82,0,0,0,.19.871,1.844,1.844,0,0,0,.51.6,2.118,2.118,0,0,0,.73.358,3.227,3.227,0,0,0,.87.117,3.148,3.148,0,0,0,1.26-.234,2.281,2.281,0,0,0,.97-0.832,4.123,4.123,0,0,0,.04.462c0.02,0.169.05,0.323,0.07,0.462h1Zm-1.28-2.314a2.776,2.776,0,0,1-.24.858,1.526,1.526,0,0,1-.55.6,1.829,1.829,0,0,1-.98.227,1.955,1.955,0,0,1-.55-0.078,1.492,1.492,0,0,1-.46-0.234,1.2,1.2,0,0,1-.32-0.39,1.289,1.289,0,0,1-.11-0.533,1.109,1.109,0,0,1,.27-0.793,1.762,1.762,0,0,1,.68-0.436,3.378,3.378,0,0,1,.88-0.188q0.465-.039.84-0.039h0.26a2.883,2.883,0,0,1,.33.026C1481.8,26.83,1481.78,27.155,1481.75,27.475Zm8.23,2.314V25.707a3.007,3.007,0,0,0-.53-1.885,2.169,2.169,0,0,0-1.81-.676,2.527,2.527,0,0,0-1.23.279,2.78,2.78,0,0,0-.92.852l-0.04-1.053h-1.13c0,0.1,0,.21.01,0.345s0.01,0.277.01,0.429,0.01,0.308.01,0.468,0.01,0.31.01,0.449v4.875h1.14V26.513a4.582,4.582,0,0,1,.09-0.9,2.482,2.482,0,0,1,.28-0.8,1.643,1.643,0,0,1,.56-0.572,1.621,1.621,0,0,1,.88-0.221,1.683,1.683,0,0,1,.83.175,1.23,1.23,0,0,1,.46.468,1.775,1.775,0,0,1,.19.676,7.015,7.015,0,0,1,.04.813v3.64h1.15Zm7.29,0-3.32-3.744,3.06-2.834h-1.46l-2.95,2.873,3.2,3.705h1.47Zm-4.71,0v-9.4h-1.14v9.4h1.14Zm13.54,0a4.946,4.946,0,0,1-.14-0.748,8.436,8.436,0,0,1-.07-1.176V25.447a2.306,2.306,0,0,0-.62-1.82,2.821,2.821,0,0,0-1.88-.533,3.948,3.948,0,0,0-.89.1,2.271,2.271,0,0,0-.77.319,1.669,1.669,0,0,0-.55.585,1.883,1.883,0,0,0-.25.9h1.12a1.235,1.235,0,0,1,.41-0.9,1.594,1.594,0,0,1,.96-0.253,1.32,1.32,0,0,1,1.12.416,1.9,1.9,0,0,1,.32,1.17v0.39c-0.09-.008-0.2-0.015-0.3-0.02s-0.23-.006-0.35-0.006q-0.6,0-1.26.065a4.344,4.344,0,0,0-1.22.293,2.349,2.349,0,0,0-.91.663,1.794,1.794,0,0,0-.37,1.177,1.945,1.945,0,0,0,.19.871,1.844,1.844,0,0,0,.51.6,2.21,2.21,0,0,0,.73.358,3.449,3.449,0,0,0,2.14-.117,2.317,2.317,0,0,0,.96-0.832c0.01,0.139.02,0.293,0.04,0.462s0.05,0.323.07,0.462h1.01Zm-1.29-2.314a2.776,2.776,0,0,1-.24.858,1.526,1.526,0,0,1-.55.6,1.806,1.806,0,0,1-.98.227,1.836,1.836,0,0,1-.54-0.078,1.439,1.439,0,0,1-.47-0.234,1.2,1.2,0,0,1-.32-0.39,1.289,1.289,0,0,1-.11-0.533,1.109,1.109,0,0,1,.27-0.793,1.762,1.762,0,0,1,.68-0.436,3.469,3.469,0,0,1,.88-0.188c0.31-.026.59-0.039,0.85-0.039h0.26a2.914,2.914,0,0,1,.32.026C1504.86,26.83,1504.84,27.155,1504.81,27.475Zm8.09,0.117-0.04-.013h-1.08a1.813,1.813,0,0,1-.48,1.154,1.578,1.578,0,0,1-1.16.432,1.71,1.71,0,0,1-.92-0.235,1.857,1.857,0,0,1-.62-0.612,2.65,2.65,0,0,1-.35-0.847,4.279,4.279,0,0,1-.1-0.939,4.573,4.573,0,0,1,.1-0.977,2.868,2.868,0,0,1,.34-0.86,1.889,1.889,0,0,1,.63-0.613,1.845,1.845,0,0,1,.97-0.235,1.519,1.519,0,0,1,1.11.4,1.668,1.668,0,0,1,.45,1.1h1.12a2.36,2.36,0,0,0-.83-1.735,2.932,2.932,0,0,0-1.85-.566,3.452,3.452,0,0,0-1.41.266,2.81,2.81,0,0,0-1.01.741,3.1,3.1,0,0,0-.62,1.124,4.544,4.544,0,0,0-.21,1.4,4.2,4.2,0,0,0,.21,1.358,2.941,2.941,0,0,0,.61,1.06,2.8,2.8,0,0,0,.99.689,3.6,3.6,0,0,0,1.38.247,3.646,3.646,0,0,0,1.04-.143,2.5,2.5,0,0,0,.86-0.436,2.159,2.159,0,0,0,.6-0.735,2.7,2.7,0,0,0,.27-1.027h0Zm6.31,0-0.04-.013h-1.07a1.769,1.769,0,0,1-.49,1.154,1.539,1.539,0,0,1-1.15.432,1.746,1.746,0,0,1-.93-0.235,1.923,1.923,0,0,1-.61-0.612,2.65,2.65,0,0,1-.35-0.847,4.279,4.279,0,0,1-.1-0.939,4.573,4.573,0,0,1,.1-0.977,2.627,2.627,0,0,1,.34-0.86,1.858,1.858,0,0,1,.62-0.613,1.882,1.882,0,0,1,.98-0.235,1.479,1.479,0,0,1,1.1.4,1.675,1.675,0,0,1,.46,1.1h1.12a2.36,2.36,0,0,0-.83-1.735,2.951,2.951,0,0,0-1.85-.566,3.452,3.452,0,0,0-1.41.266,2.937,2.937,0,0,0-1.02.741,3.241,3.241,0,0,0-.61,1.124,4.544,4.544,0,0,0-.21,1.4,4.2,4.2,0,0,0,.21,1.358,2.941,2.941,0,0,0,.61,1.06,2.8,2.8,0,0,0,.99.689,3.551,3.551,0,0,0,1.37.247,3.666,3.666,0,0,0,1.05-.143,2.5,2.5,0,0,0,.86-0.436,2.281,2.281,0,0,0,.6-0.735,2.527,2.527,0,0,0,.26-1.027h0Zm6.63-2.5a2.878,2.878,0,0,0-.62-1.073,2.754,2.754,0,0,0-1.01-.7,3.6,3.6,0,0,0-1.38-.247,3.5,3.5,0,0,0-1.37.253,2.86,2.86,0,0,0-1.02.7,3.061,3.061,0,0,0-.64,1.073,4,4,0,0,0-.22,1.365,4.376,4.376,0,0,0,.21,1.378,3.154,3.154,0,0,0,.63,1.1,2.809,2.809,0,0,0,1.01.721,3.528,3.528,0,0,0,1.39.26,3.356,3.356,0,0,0,1.37-.266,2.841,2.841,0,0,0,1.01-.735,3.258,3.258,0,0,0,.64-1.1A4.562,4.562,0,0,0,1525.84,25.1Zm-1.11,2.329a2.6,2.6,0,0,1-.36.867,1.9,1.9,0,0,1-.63.632,1.685,1.685,0,0,1-.93.241,1.744,1.744,0,0,1-.94-0.241,2,2,0,0,1-.62-0.625,2.724,2.724,0,0,1-.35-0.86,3.89,3.89,0,0,1-.11-0.958,3.74,3.74,0,0,1,.11-0.945,2.505,2.505,0,0,1,.35-0.827,1.813,1.813,0,0,1,.63-0.587,2.083,2.083,0,0,1,1.87,0,1.813,1.813,0,0,1,.63.587,2.505,2.505,0,0,1,.35.827,3.74,3.74,0,0,1,.11.945A3.835,3.835,0,0,1,1524.73,27.425Zm7.91,2.364c-0.02-.572-0.02-1.138-0.02-1.7V23.224h-1.15V26.7a4.018,4.018,0,0,1-.09.864,2.216,2.216,0,0,1-.3.735,1.5,1.5,0,0,1-.55.514,1.784,1.784,0,0,1-.86.188,1.709,1.709,0,0,1-.83-0.169,1.121,1.121,0,0,1-.46-0.462,1.789,1.789,0,0,1-.2-0.683c-0.02-.26-0.04-0.533-0.04-0.819v-3.64H1527v4.082a4.443,4.443,0,0,0,.12,1.085,2.081,2.081,0,0,0,.41.806,1.715,1.715,0,0,0,.72.5,3.158,3.158,0,0,0,1.1.169,2.466,2.466,0,0,0,1.21-.273,2.876,2.876,0,0,0,.91-0.845l0.05,1.04h1.12Zm7.06,0V25.707a2.946,2.946,0,0,0-.53-1.885,2.156,2.156,0,0,0-1.81-.676,2.527,2.527,0,0,0-1.23.279,2.662,2.662,0,0,0-.91.852l-0.04-1.053h-1.13v0.345c0.01,0.134.01,0.277,0.02,0.429s0,0.308.01,0.468v5.324h1.15V26.513a5.475,5.475,0,0,1,.08-0.9,2.754,2.754,0,0,1,.29-0.8,1.614,1.614,0,0,1,.55-0.572,1.949,1.949,0,0,1,1.71-.046,1.1,1.1,0,0,1,.46.468,1.78,1.78,0,0,1,.2.676c0.02,0.256.04,0.526,0.04,0.813v3.64h1.14Zm4.51-.013V28.905c-0.11.017-.21,0.032-0.31,0.046a2.325,2.325,0,0,1-.3.019,1.484,1.484,0,0,1-.47-0.058,0.574,0.574,0,0,1-.28-0.189,0.783,0.783,0,0,1-.12-0.338,3.624,3.624,0,0,1-.03-0.507V24.017h1.47V23.224h-1.47V21.469l-1.14.481v1.274h-1.29v0.793h1.29v4.316a1.476,1.476,0,0,0,.4,1.17,1.787,1.787,0,0,0,1.2.351,7.343,7.343,0,0,0,1.05-.078h0Z" transform="translate(-1163)"/>
  </g>
</svg>
