<svg xmlns="http://www.w3.org/2000/svg" width="728" height="90" viewBox="0 0 728 90">
  <defs>
    <style>
      .cls-1 {
        fill: #fff;
        fill-rule: evenodd;
      }
    </style>
  </defs>
  <g id="International_Engage_Banner_728x90_Frame_2" data-name="International Engage Banner 728x90 Frame 2">
    <path id="We_make_it_simple_and_easy_for_everyone_to_open_a_bank_account_copy" data-name="We make it simple and easy for everyone to open a bank account  copy" class="cls-1" d="M1195.85,40.7a2.878,2.878,0,0,0-.62-1.072,2.754,2.754,0,0,0-1.01-.7,3.6,3.6,0,0,0-1.38-.247,3.5,3.5,0,0,0-1.37.254,2.9,2.9,0,0,0-1.03.7,3.041,3.041,0,0,0-.63,1.072,4,4,0,0,0-.23,1.365,4.376,4.376,0,0,0,.22,1.378,3.006,3.006,0,0,0,.63,1.1,2.809,2.809,0,0,0,1.01.721,3.493,3.493,0,0,0,1.39.26,3.357,3.357,0,0,0,1.37-.267,2.932,2.932,0,0,0,1.01-.734,3.079,3.079,0,0,0,.63-1.1,4.011,4.011,0,0,0,.22-1.358A4.3,4.3,0,0,0,1195.85,40.7Zm-1.11,2.329a2.6,2.6,0,0,1-.36.867,1.9,1.9,0,0,1-.63.632,1.685,1.685,0,0,1-.93.241,1.744,1.744,0,0,1-.94-0.241,1.9,1.9,0,0,1-.62-0.625,3,3,0,0,1-.36-0.86,4.437,4.437,0,0,1-.11-0.958,4.259,4.259,0,0,1,.11-0.945,2.752,2.752,0,0,1,.36-0.828,1.814,1.814,0,0,1,.63-0.586,2.083,2.083,0,0,1,1.87,0,1.814,1.814,0,0,1,.63.586,2.506,2.506,0,0,1,.35.828,4.259,4.259,0,0,1,.11.945A4.383,4.383,0,0,1,1194.74,43.025Zm7.92,2.364V41.307a3.007,3.007,0,0,0-.52-1.885,2.178,2.178,0,0,0-1.82-.676,2.582,2.582,0,0,0-1.23.279,2.754,2.754,0,0,0-.91.852l-0.04-1.053h-1.13v0.344c0.01,0.135.01,0.278,0.02,0.429s0.01,0.308.01,0.468,0.01,0.31.01,0.448v4.875h1.14V42.113a4.582,4.582,0,0,1,.09-0.9,2.482,2.482,0,0,1,.28-0.8,1.7,1.7,0,0,1,.55-0.572,1.949,1.949,0,0,1,1.71-.045,1.1,1.1,0,0,1,.46.468,1.78,1.78,0,0,1,.2.676,7.015,7.015,0,0,1,.04.813v3.64h1.14Zm2.59,0v-9.4h-1.14v9.4h1.14Zm2.69-8.242V35.99h-1.27v1.157h1.27Zm-0.06,8.242V38.824h-1.15v6.565h1.15Zm7.09,0V41.307a3.007,3.007,0,0,0-.52-1.885,2.178,2.178,0,0,0-1.82-.676,2.514,2.514,0,0,0-1.22.279,2.688,2.688,0,0,0-.92.852l-0.04-1.053h-1.13c0,0.1,0,.21.01,0.344s0,0.278.01,0.429,0.01,0.308.01,0.468,0.01,0.31.01,0.448v4.875h1.14V42.113a4.582,4.582,0,0,1,.09-0.9,2.482,2.482,0,0,1,.28-0.8,1.7,1.7,0,0,1,.55-0.572,1.657,1.657,0,0,1,.89-0.221,1.616,1.616,0,0,1,.82.175,1.189,1.189,0,0,1,.47.468,1.775,1.775,0,0,1,.19.676,7.015,7.015,0,0,1,.04.813v3.64h1.14Zm6.91-3.068a7.551,7.551,0,0,0-.13-1.366,3.189,3.189,0,0,0-.46-1.146,2.376,2.376,0,0,0-.87-0.79,2.807,2.807,0,0,0-1.36-.3,3.3,3.3,0,0,0-1.4.273,2.6,2.6,0,0,0-.96.746,3.189,3.189,0,0,0-.58,1.109,5.032,5.032,0,0,0-.18,1.375,4.708,4.708,0,0,0,.18,1.337,3.022,3.022,0,0,0,.57,1.051,2.542,2.542,0,0,0,.94.681,3.4,3.4,0,0,0,1.33.24,3.194,3.194,0,0,0,1.9-.553,2.5,2.5,0,0,0,.98-1.709h-1.09a1.8,1.8,0,0,1-.55,1.1,1.643,1.643,0,0,1-1.14.4,1.911,1.911,0,0,1-.87-0.188,1.8,1.8,0,0,1-.62-0.514,2.56,2.56,0,0,1-.37-0.741,3.126,3.126,0,0,1-.12-0.871v-0.13h4.8Zm-4.77-.767a2.927,2.927,0,0,1,.17-0.775,2.44,2.44,0,0,1,.37-0.665,1.661,1.661,0,0,1,1.37-.627,1.635,1.635,0,0,1,.77.175,1.708,1.708,0,0,1,.55.459,2,2,0,0,1,.31.659,3.311,3.311,0,0,1,.1.775h-3.64Zm18.7-2.73h-1.14l-1.68,5.317-1.77-5.317h-1.31l-1.81,5.382-1.69-5.382h-1.27l2.33,6.565h1.17l1.87-5.434,1.83,5.434h1.13Zm6.24,6.565V41.307a4.446,4.446,0,0,0-.12-1.085,2.069,2.069,0,0,0-.4-0.806,1.8,1.8,0,0,0-.73-0.507,3.05,3.05,0,0,0-1.1-.175,2.541,2.541,0,0,0-1.22.279,2.677,2.677,0,0,0-.9.839V35.99h-1.14v9.4h1.14V41.918a3.569,3.569,0,0,1,.1-0.864,2.158,2.158,0,0,1,.31-0.741,1.608,1.608,0,0,1,.56-0.514,1.683,1.683,0,0,1,.84-0.2,1.642,1.642,0,0,1,.82.175,1.1,1.1,0,0,1,.46.468,1.789,1.789,0,0,1,.2.683,7.178,7.178,0,0,1,.04.819v3.64h1.14Zm6.91-3.068a7.551,7.551,0,0,0-.13-1.366,3.189,3.189,0,0,0-.46-1.146,2.458,2.458,0,0,0-.87-0.79,2.807,2.807,0,0,0-1.36-.3,3.3,3.3,0,0,0-1.4.273,2.6,2.6,0,0,0-.96.746,3.189,3.189,0,0,0-.58,1.109,5.032,5.032,0,0,0-.18,1.375,4.708,4.708,0,0,0,.18,1.337,3.022,3.022,0,0,0,.57,1.051,2.463,2.463,0,0,0,.94.681,3.4,3.4,0,0,0,1.33.24,3.194,3.194,0,0,0,1.9-.553,2.5,2.5,0,0,0,.98-1.709h-1.09a1.8,1.8,0,0,1-.55,1.1,1.66,1.66,0,0,1-1.14.4,1.911,1.911,0,0,1-.87-0.188,1.8,1.8,0,0,1-.62-0.514,2.332,2.332,0,0,1-.37-0.741,3.126,3.126,0,0,1-.12-0.871v-0.13h4.8Zm-4.77-.767a2.927,2.927,0,0,1,.17-0.775,2.44,2.44,0,0,1,.37-0.665,1.661,1.661,0,0,1,1.37-.627,1.635,1.635,0,0,1,.77.175,1.708,1.708,0,0,1,.55.459,2,2,0,0,1,.31.659,3.311,3.311,0,0,1,.1.775h-3.64Zm8.83,3.822V44.505c-0.11.017-.21,0.032-0.31,0.046a2.109,2.109,0,0,1-.3.019,1.527,1.527,0,0,1-.47-0.058,0.5,0.5,0,0,1-.27-0.189,0.678,0.678,0,0,1-.13-0.338c-0.01-.139-0.02-0.308-0.02-0.507V39.617h1.47V38.824h-1.47V37.069l-1.15.481v1.274h-1.28v0.793h1.28v4.316a1.478,1.478,0,0,0,.41,1.17,1.74,1.74,0,0,0,1.19.351,7.343,7.343,0,0,0,1.05-.078h0Zm6.37,0.013V41.307a4.446,4.446,0,0,0-.12-1.085,2.069,2.069,0,0,0-.4-0.806,1.8,1.8,0,0,0-.73-0.507,3.012,3.012,0,0,0-1.1-.175,2.473,2.473,0,0,0-1.21.279,2.615,2.615,0,0,0-.91.839V35.99h-1.14v9.4h1.14V41.918a4.146,4.146,0,0,1,.1-0.864,2.372,2.372,0,0,1,.31-0.741,1.83,1.83,0,0,1,2.23-.533,1.23,1.23,0,0,1,.46.468,1.785,1.785,0,0,1,.19.683,7.178,7.178,0,0,1,.04.819v3.64h1.14Zm6.91-3.068a7.551,7.551,0,0,0-.13-1.366,3.189,3.189,0,0,0-.46-1.146,2.3,2.3,0,0,0-.87-0.79,2.807,2.807,0,0,0-1.36-.3,3.257,3.257,0,0,0-1.39.273,2.64,2.64,0,0,0-.97.746,3.012,3.012,0,0,0-.57,1.109,4.671,4.671,0,0,0-.19,1.375,4.372,4.372,0,0,0,.19,1.337,2.849,2.849,0,0,0,.56,1.051,2.542,2.542,0,0,0,.94.681,3.415,3.415,0,0,0,1.34.24,3.184,3.184,0,0,0,1.89-.553,2.5,2.5,0,0,0,.98-1.709h-1.09a1.746,1.746,0,0,1-.55,1.1,1.626,1.626,0,0,1-1.14.4,1.911,1.911,0,0,1-.87-0.188,1.769,1.769,0,0,1-.61-0.514,2.352,2.352,0,0,1-.38-0.741,3.126,3.126,0,0,1-.12-0.871v-0.13h4.8Zm-4.77-.767a2.927,2.927,0,0,1,.17-0.775,2.44,2.44,0,0,1,.37-0.665,1.7,1.7,0,0,1,1.37-.627,1.635,1.635,0,0,1,.77.175,1.708,1.708,0,0,1,.55.459,2,2,0,0,1,.31.659,3.311,3.311,0,0,1,.1.775h-3.64Zm9.27-1.664V38.811c-0.06-.009-0.11-0.015-0.18-0.02s-0.13-.007-0.19-0.007a2.465,2.465,0,0,0-1.16.254,2.1,2.1,0,0,0-.84.838l-0.05-1.053h-1.12c0.03,0.642.04,1.283,0.04,1.924v4.641h1.14V41.853a2.475,2.475,0,0,1,.39-1.475,1.631,1.631,0,0,1,1.41-.54c0.09,0,.19,0,0.28.013a2.747,2.747,0,0,1,.28.039h0Zm9.37-1.066h-1.16l-2.05,5.369-2.07-5.369h-1.3l2.8,6.552-1.08,2.483h1.14Zm6.12,1.872a2.878,2.878,0,0,0-.62-1.072,2.754,2.754,0,0,0-1.01-.7,3.6,3.6,0,0,0-1.38-.247,3.5,3.5,0,0,0-1.37.254,2.774,2.774,0,0,0-1.02.7,2.919,2.919,0,0,0-.64,1.072,4,4,0,0,0-.22,1.365,4.376,4.376,0,0,0,.21,1.378,3.006,3.006,0,0,0,.63,1.1,2.809,2.809,0,0,0,1.01.721,3.528,3.528,0,0,0,1.39.26,3.357,3.357,0,0,0,1.37-.267,2.841,2.841,0,0,0,1.01-.734,3.258,3.258,0,0,0,.64-1.1A4.562,4.562,0,0,0,1286.29,40.7Zm-1.11,2.329a2.6,2.6,0,0,1-.36.867,1.9,1.9,0,0,1-.63.632,1.685,1.685,0,0,1-.93.241,1.744,1.744,0,0,1-.94-0.241,1.9,1.9,0,0,1-.62-0.625,2.724,2.724,0,0,1-.35-0.86,3.9,3.9,0,0,1-.12-0.958,3.748,3.748,0,0,1,.12-0.945,2.506,2.506,0,0,1,.35-0.828,1.814,1.814,0,0,1,.63-0.586,2.083,2.083,0,0,1,1.87,0,1.814,1.814,0,0,1,.63.586,2.506,2.506,0,0,1,.35.828,4.259,4.259,0,0,1,.11.945A4.383,4.383,0,0,1,1285.18,43.025Zm7.91,2.364q-0.03-.858-0.03-1.7V38.824h-1.14V42.3a4.018,4.018,0,0,1-.09.864,2.216,2.216,0,0,1-.3.735,1.5,1.5,0,0,1-.55.514,1.8,1.8,0,0,1-.87.188,1.693,1.693,0,0,1-.82-0.169,1.065,1.065,0,0,1-.46-0.462,1.789,1.789,0,0,1-.2-0.683c-0.02-.26-0.04-0.533-0.04-0.819v-3.64h-1.14v4.082a4.443,4.443,0,0,0,.12,1.085,1.953,1.953,0,0,0,.41.806,1.654,1.654,0,0,0,.72.5,3.158,3.158,0,0,0,1.1.169,2.466,2.466,0,0,0,1.21-.273,2.876,2.876,0,0,0,.91-0.845l0.05,1.04h1.12Zm3.32-9.4h-1.32l-0.63,2.756h0.92Zm4.9,3.9V38.811c-0.06-.009-0.11-0.015-0.18-0.02s-0.13-.007-0.19-0.007a2.465,2.465,0,0,0-1.16.254,2.1,2.1,0,0,0-.84.838l-0.05-1.053h-1.12c0.03,0.642.04,1.283,0.04,1.924v4.641h1.14V41.853a2.475,2.475,0,0,1,.39-1.475,1.631,1.631,0,0,1,1.41-.54c0.09,0,.19,0,0.28.013a2.747,2.747,0,0,1,.28.039h0Zm6.03,2.431a6.749,6.749,0,0,0-.13-1.366,3.189,3.189,0,0,0-.46-1.146,2.3,2.3,0,0,0-.87-0.79,2.807,2.807,0,0,0-1.36-.3,3.257,3.257,0,0,0-1.39.273,2.64,2.64,0,0,0-.97.746,3.012,3.012,0,0,0-.57,1.109,4.671,4.671,0,0,0-.19,1.375,4.372,4.372,0,0,0,.19,1.337,2.849,2.849,0,0,0,.56,1.051,2.542,2.542,0,0,0,.94.681,3.45,3.45,0,0,0,1.34.24,3.184,3.184,0,0,0,1.89-.553,2.5,2.5,0,0,0,.98-1.709h-1.09a1.746,1.746,0,0,1-.55,1.1,1.626,1.626,0,0,1-1.14.4,1.911,1.911,0,0,1-.87-0.188,1.769,1.769,0,0,1-.61-0.514,2.142,2.142,0,0,1-.37-0.741,2.8,2.8,0,0,1-.13-0.871v-0.13h4.8Zm-4.77-.767a2.927,2.927,0,0,1,.17-0.775,2.44,2.44,0,0,1,.37-0.665,1.716,1.716,0,0,1,.58-0.459,1.744,1.744,0,0,1,.79-0.168,1.635,1.635,0,0,1,.77.175,1.609,1.609,0,0,1,.55.459,1.821,1.821,0,0,1,.31.659,2.856,2.856,0,0,1,.1.775h-3.64Zm10.1-4.407V35.99h-1.28v1.157h1.28Zm-0.07,8.242V38.824h-1.14v6.565h1.14Zm7.1,0V41.307a3.007,3.007,0,0,0-.52-1.885,2.191,2.191,0,0,0-1.82-.676,2.582,2.582,0,0,0-1.23.279,2.754,2.754,0,0,0-.91.852l-0.04-1.053h-1.13v0.344c0.01,0.135.01,0.278,0.02,0.429s0.01,0.308.01,0.468,0.01,0.31.01,0.448v4.875h1.14V42.113a5.475,5.475,0,0,1,.08-0.9,2.754,2.754,0,0,1,.29-0.8,1.614,1.614,0,0,1,.55-0.572,1.949,1.949,0,0,1,1.71-.045,1.1,1.1,0,0,1,.46.468,1.78,1.78,0,0,1,.2.676c0.02,0.256.04,0.526,0.04,0.813v3.64h1.14Zm7.63-.013V44.505c-0.11.017-.21,0.032-0.31,0.046a2.109,2.109,0,0,1-.3.019,1.484,1.484,0,0,1-.47-0.058,0.574,0.574,0,0,1-.28-0.189,0.783,0.783,0,0,1-.12-0.338,3.624,3.624,0,0,1-.03-0.507V39.617h1.47V38.824h-1.47V37.069l-1.14.481v1.274h-1.29v0.793h1.29v4.316a1.512,1.512,0,0,0,.4,1.17,1.787,1.787,0,0,0,1.2.351,7.343,7.343,0,0,0,1.05-.078h0Zm6.37,0.013V41.307a4.446,4.446,0,0,0-.12-1.085,2.069,2.069,0,0,0-.4-0.806,1.8,1.8,0,0,0-.73-0.507,3.05,3.05,0,0,0-1.1-.175,2.541,2.541,0,0,0-1.22.279,2.677,2.677,0,0,0-.9.839V35.99h-1.14v9.4h1.14V41.918a3.569,3.569,0,0,1,.1-0.864,2.158,2.158,0,0,1,.31-0.741,1.608,1.608,0,0,1,.56-0.514,1.683,1.683,0,0,1,.84-0.2,1.642,1.642,0,0,1,.82.175,1.1,1.1,0,0,1,.46.468,1.789,1.789,0,0,1,.2.683,7.178,7.178,0,0,1,.04.819v3.64h1.14Zm6.91-3.068a7.551,7.551,0,0,0-.13-1.366,3.189,3.189,0,0,0-.46-1.146,2.458,2.458,0,0,0-.87-0.79,2.822,2.822,0,0,0-1.37-.3,3.289,3.289,0,0,0-1.39.273,2.6,2.6,0,0,0-.96.746,3.189,3.189,0,0,0-.58,1.109,5.027,5.027,0,0,0-.19,1.375,4.7,4.7,0,0,0,.19,1.337,3.022,3.022,0,0,0,.57,1.051,2.463,2.463,0,0,0,.94.681,3.4,3.4,0,0,0,1.33.24,3.194,3.194,0,0,0,1.9-.553,2.5,2.5,0,0,0,.98-1.709h-1.1a1.737,1.737,0,0,1-.54,1.1,1.669,1.669,0,0,1-1.15.4,1.9,1.9,0,0,1-.86-0.188,1.8,1.8,0,0,1-.62-0.514,2.332,2.332,0,0,1-.37-0.741,3.126,3.126,0,0,1-.12-0.871v-0.13h4.8Zm-4.78-.767a3.4,3.4,0,0,1,.18-0.775,2.2,2.2,0,0,1,.37-0.665,1.661,1.661,0,0,1,1.37-.627,1.635,1.635,0,0,1,.77.175,1.708,1.708,0,0,1,.55.459,2,2,0,0,1,.31.659,3.308,3.308,0,0,1,.09.775h-3.64Zm16.53,0.247V35.99h-1.24v5.59q0,0.416-.03.838a2.538,2.538,0,0,1-.2.813,1.989,1.989,0,0,1-.93,1.027,2.912,2.912,0,0,1-1.36.325,3.125,3.125,0,0,1-1.2-.241,1.955,1.955,0,0,1-.92-0.773,2.2,2.2,0,0,1-.34-0.949c-0.03-.338-0.05-0.676-0.05-1.014V35.99h-1.27v5.785a3.841,3.841,0,0,0,.94,2.86,3.894,3.894,0,0,0,2.83.923,3.4,3.4,0,0,0,3.77-3.757h0Zm9.49,3.588-3.97-9.4h-1.34l-3.82,9.4h1.24l0.96-2.483h4.55l0.97,2.483h1.41ZM1359.09,42h-3.83l1.88-4.94Zm9.45,3.393V44.44h-4.79V41.008h4.42V40.059h-4.42v-3.12h4.61V35.99h-5.82v9.4h6Zm9.95-4.693a3.02,3.02,0,0,0-.62-1.072,2.754,2.754,0,0,0-1.01-.7,3.93,3.93,0,0,0-2.76.007,2.951,2.951,0,0,0-1.02.7,3.061,3.061,0,0,0-.64,1.072,4.255,4.255,0,0,0-.22,1.365,4.108,4.108,0,0,0,.22,1.378,3.134,3.134,0,0,0,.62,1.1,2.847,2.847,0,0,0,1.02.721,3.459,3.459,0,0,0,1.39.26,3.309,3.309,0,0,0,1.36-.267,2.971,2.971,0,0,0,1.02-.734,3.079,3.079,0,0,0,.63-1.1A4.46,4.46,0,0,0,1378.49,40.7Zm-1.11,2.329a3.088,3.088,0,0,1-.36.867,2.11,2.11,0,0,1-.63.632,1.933,1.933,0,0,1-1.87,0,1.925,1.925,0,0,1-.63-0.625,2.98,2.98,0,0,1-.35-0.86,4.437,4.437,0,0,1-.11-0.958,4.259,4.259,0,0,1,.11-0.945,2.736,2.736,0,0,1,.35-0.828,1.814,1.814,0,0,1,.63-0.586,1.893,1.893,0,0,1,.94-0.222,1.816,1.816,0,0,1,1.57.808,2.736,2.736,0,0,1,.35.828,4.259,4.259,0,0,1,.11.945A4.383,4.383,0,0,1,1377.38,43.025Zm5.8-3.135V38.811c-0.05-.009-0.11-0.015-0.17-0.02s-0.13-.007-0.19-0.007a2.536,2.536,0,0,0-1.17.254,2.237,2.237,0,0,0-.84.838l-0.05-1.053h-1.12c0.03,0.642.04,1.283,0.04,1.924v4.641h1.15V41.853a2.475,2.475,0,0,1,.39-1.475,1.622,1.622,0,0,1,1.4-.54c0.1,0,.19,0,0.29.013s0.18,0.022.27,0.039h0Zm8.85,5.5a7.353,7.353,0,0,1-.13-0.748,8.436,8.436,0,0,1-.07-1.176V41.047a2.306,2.306,0,0,0-.62-1.82,2.821,2.821,0,0,0-1.88-.533,4.1,4.1,0,0,0-.9.1,2.3,2.3,0,0,0-.76.319,1.793,1.793,0,0,0-.56.585,2,2,0,0,0-.24.9h1.12a1.2,1.2,0,0,1,.41-0.9,1.594,1.594,0,0,1,.96-0.254,1.332,1.332,0,0,1,1.12.416,1.9,1.9,0,0,1,.32,1.17v0.39c-0.1-.008-0.2-0.015-0.31-0.02s-0.22-.006-0.34-0.006q-0.6,0-1.26.065a4.344,4.344,0,0,0-1.22.293,2.278,2.278,0,0,0-.91.663,1.741,1.741,0,0,0-.37,1.176,1.82,1.82,0,0,0,.19.871,1.844,1.844,0,0,0,.51.6,2.118,2.118,0,0,0,.73.358,3.227,3.227,0,0,0,.87.117,3.148,3.148,0,0,0,1.26-.234,2.281,2.281,0,0,0,.97-0.832,4.123,4.123,0,0,0,.04.462c0.02,0.169.05,0.323,0.07,0.462h1Zm-1.28-2.314a2.776,2.776,0,0,1-.24.858,1.526,1.526,0,0,1-.55.6,1.829,1.829,0,0,1-.98.227,1.955,1.955,0,0,1-.55-0.078,1.492,1.492,0,0,1-.46-0.234,1.2,1.2,0,0,1-.32-0.39,1.148,1.148,0,0,1-.11-0.533,1.109,1.109,0,0,1,.27-0.793,1.762,1.762,0,0,1,.68-0.435,3.378,3.378,0,0,1,.88-0.188q0.465-.039.84-0.039h0.26a2.883,2.883,0,0,1,.33.026C1390.8,42.43,1390.78,42.755,1390.75,43.075Zm8.58-2.314a3.063,3.063,0,0,0-.5-1.053,2.38,2.38,0,0,0-.87-0.728,2.964,2.964,0,0,0-2.54.026,2.4,2.4,0,0,0-.93.949l-0.04-1.131h-1.13q0.03,0.468.03,0.942c0.01,0.317.01,0.626,0.01,0.93v7.163h1.14V44.4a3.111,3.111,0,0,0,.89.832,2.334,2.334,0,0,0,1.19.273,2.679,2.679,0,0,0,1.29-.3,2.81,2.81,0,0,0,.91-0.786,3.462,3.462,0,0,0,.54-1.118A4.7,4.7,0,0,0,1399.33,40.761Zm-1.14,2.262a2.535,2.535,0,0,1-.33.839,1.815,1.815,0,0,1-.6.6,1.738,1.738,0,0,1-.94.234,1.55,1.55,0,0,1-.88-0.234,1.93,1.93,0,0,1-.57-0.6,2.483,2.483,0,0,1-.29-0.832,4.712,4.712,0,0,1-.09-0.9,4.962,4.962,0,0,1,.1-0.936,2.55,2.55,0,0,1,.34-0.839,1.815,1.815,0,0,1,.6-0.6,1.713,1.713,0,0,1,.92-0.234,1.542,1.542,0,0,1,.88.24,1.786,1.786,0,0,1,.57.611,2.741,2.741,0,0,1,.3.825,4.617,4.617,0,0,1,.09.9A4.962,4.962,0,0,1,1398.19,43.023Zm8.27-2.262a3.257,3.257,0,0,0-.5-1.053,2.556,2.556,0,0,0-.87-0.728,2.987,2.987,0,0,0-2.55.026,2.541,2.541,0,0,0-.93.949l-0.03-1.131h-1.14c0.02,0.312.03,0.626,0.04,0.942v8.093h1.15V44.4a3.086,3.086,0,0,0,.88.832,2.36,2.36,0,0,0,1.19.273,2.625,2.625,0,0,0,1.29-.3,2.71,2.71,0,0,0,.91-0.786,3.1,3.1,0,0,0,.54-1.118A4.838,4.838,0,0,0,1406.46,40.761Zm-1.15,2.262a2.522,2.522,0,0,1-.32.839,1.757,1.757,0,0,1-.61.6,1.725,1.725,0,0,1-.93.234,1.585,1.585,0,0,1-.89-0.234,1.794,1.794,0,0,1-.56-0.6,2.736,2.736,0,0,1-.3-0.832,4.712,4.712,0,0,1-.09-0.9,4.271,4.271,0,0,1,.11-0.936,2.772,2.772,0,0,1,.33-0.839,1.815,1.815,0,0,1,.6-0.6,1.75,1.75,0,0,1,.93-0.234,1.565,1.565,0,0,1,.88.24,1.858,1.858,0,0,1,.56.611,2.741,2.741,0,0,1,.3.825,4.617,4.617,0,0,1,.09.9A4.256,4.256,0,0,1,1405.31,43.023Zm3.44,2.366v-9.4h-1.14v9.4h1.14Zm7.16-6.565h-1.15l-2.06,5.369-2.06-5.369h-1.3l2.79,6.552-1.08,2.483h1.15Zm1.76-1.677V35.99h-1.27v1.157h1.27Zm-0.07,8.242V38.824h-1.14v6.565h1.14Zm7.1,0V41.307a3.007,3.007,0,0,0-.52-1.885,2.178,2.178,0,0,0-1.82-.676,2.582,2.582,0,0,0-1.23.279,2.754,2.754,0,0,0-.91.852l-0.04-1.053h-1.13v0.344c0.01,0.135.01,0.278,0.02,0.429s0.01,0.308.01,0.468,0.01,0.31.01,0.448v4.875h1.14V42.113a4.582,4.582,0,0,1,.09-0.9,2.482,2.482,0,0,1,.28-0.8,1.7,1.7,0,0,1,.55-0.572,1.949,1.949,0,0,1,1.71-.045,1.1,1.1,0,0,1,.46.468,1.78,1.78,0,0,1,.2.676,7.015,7.015,0,0,1,.04.813v3.64h1.14Zm6.06-6.565v1.118a2.4,2.4,0,0,0-2.22-1.235,2.758,2.758,0,0,0-1.26.273,2.505,2.505,0,0,0-.89.734,3.21,3.21,0,0,0-.54,1.06,4.313,4.313,0,0,0-.19,1.248,4.464,4.464,0,0,0,.18,1.28,3.219,3.219,0,0,0,.53,1.053,2.559,2.559,0,0,0,.9.709,2.931,2.931,0,0,0,1.28.26,2.426,2.426,0,0,0,2.17-1.157v0.546c0,0.182-.01.36-0.02,0.533a3.877,3.877,0,0,1-.16.824,1.814,1.814,0,0,1-.34.628,1.443,1.443,0,0,1-.57.4,2.375,2.375,0,0,1-.87.137,2.923,2.923,0,0,1-.59-0.059,1.373,1.373,0,0,1-.5-0.2,1.088,1.088,0,0,1-.36-0.381,1.179,1.179,0,0,1-.14-0.591h-1.12a1.858,1.858,0,0,0,.24.988,1.735,1.735,0,0,0,.63.611,2.641,2.641,0,0,0,.87.312,5.29,5.29,0,0,0,.98.091,3.587,3.587,0,0,0,1.73-.344,2.091,2.091,0,0,0,.92-0.949,3.993,3.993,0,0,0,.37-1.417q0.06-.812.06-1.762V41.1c0-.381.01-0.761,0.01-1.138s0.02-.756.04-1.137h-1.14Zm-0.12,4.069a2.758,2.758,0,0,1-.32.839,1.756,1.756,0,0,1-.6.6,1.7,1.7,0,0,1-.92.227,1.74,1.74,0,0,1-.9-0.221,1.825,1.825,0,0,1-.59-0.572,2.542,2.542,0,0,1-.33-0.8,3.956,3.956,0,0,1-.11-0.9,4.755,4.755,0,0,1,.1-0.923,2.7,2.7,0,0,1,.33-0.819,1.781,1.781,0,0,1,.6-0.591,1.729,1.729,0,0,1,.92-0.227,1.646,1.646,0,0,1,.86.221,1.966,1.966,0,0,1,.6.572,2.566,2.566,0,0,1,.34.793,3.3,3.3,0,0,1,.11.871A4.946,4.946,0,0,1,1430.64,42.893Zm9-6.11V35.951c-0.33-.026-0.65-0.039-0.95-0.039a2.237,2.237,0,0,0-.95.169,1.223,1.223,0,0,0-.53.474,1.8,1.8,0,0,0-.23.728,6.537,6.537,0,0,0-.06.916v0.624h-1.31v0.793h1.31v5.772h1.15V39.617h1.47V38.824h-1.47v-1.2a0.733,0.733,0,0,1,.29-0.7,1.516,1.516,0,0,1,.77-0.169c0.09,0,.17,0,0.26.006s0.16,0.011.25,0.02h0Zm4.11,3.107V38.811a1.772,1.772,0,0,0-.18-0.02c-0.06,0-.13-0.007-0.19-0.007a2.494,2.494,0,0,0-1.16.254,2.237,2.237,0,0,0-.84.838l-0.05-1.053h-1.12c0.03,0.642.04,1.283,0.04,1.924v4.641h1.14V41.853a2.548,2.548,0,0,1,.39-1.475,1.631,1.631,0,0,1,1.41-.54c0.09,0,.19,0,0.28.013a2.747,2.747,0,0,1,.28.039h0Zm6.2,0.806a3.02,3.02,0,0,0-.62-1.072,2.754,2.754,0,0,0-1.01-.7,3.6,3.6,0,0,0-1.38-.247,3.5,3.5,0,0,0-1.37.254,2.9,2.9,0,0,0-1.03.7,3.061,3.061,0,0,0-.64,1.072,4.255,4.255,0,0,0-.22,1.365,4.108,4.108,0,0,0,.22,1.378,3.134,3.134,0,0,0,.62,1.1,2.937,2.937,0,0,0,1.02.721,3.493,3.493,0,0,0,1.39.26,3.309,3.309,0,0,0,1.36-.267,2.971,2.971,0,0,0,1.02-.734,3.079,3.079,0,0,0,.63-1.1,4.011,4.011,0,0,0,.22-1.358A4.3,4.3,0,0,0,1449.95,40.7Zm-1.11,2.329a3.088,3.088,0,0,1-.36.867,1.9,1.9,0,0,1-.63.632,1.933,1.933,0,0,1-1.87,0,1.925,1.925,0,0,1-.63-0.625,2.98,2.98,0,0,1-.35-0.86,4.437,4.437,0,0,1-.11-0.958,4.259,4.259,0,0,1,.11-0.945,2.736,2.736,0,0,1,.35-0.828,1.814,1.814,0,0,1,.63-0.586,2.1,2.1,0,0,1,1.88,0,1.814,1.814,0,0,1,.63.586,2.736,2.736,0,0,1,.35.828,4.259,4.259,0,0,1,.11.945A4.383,4.383,0,0,1,1448.84,43.025ZM1461,45.389V41.541a5.563,5.563,0,0,0-.1-1.111,2.217,2.217,0,0,0-.35-0.884,1.767,1.767,0,0,0-.69-0.585,2.65,2.65,0,0,0-1.14-.215,2.364,2.364,0,0,0-2.27,1.352,2.1,2.1,0,0,0-.81-1.04,2.375,2.375,0,0,0-1.28-.312,2.267,2.267,0,0,0-2.08,1.17l-0.04-1.092h-1.13c0.02,0.754.04,1.5,0.04,2.249v4.316h1.14v-3.64a3.033,3.033,0,0,1,.1-0.793,1.881,1.881,0,0,1,.3-0.682,1.615,1.615,0,0,1,.54-0.474,1.539,1.539,0,0,1,.78-0.182,1.63,1.63,0,0,1,.76.156,1.192,1.192,0,0,1,.45.422,1.709,1.709,0,0,1,.22.624,4.6,4.6,0,0,1,.06.761v3.809h1.14v-3.64a3.694,3.694,0,0,1,.09-0.832,1.794,1.794,0,0,1,.28-0.676,1.373,1.373,0,0,1,.52-0.455,1.751,1.751,0,0,1,.82-0.169,1.6,1.6,0,0,1,.74.149,1.241,1.241,0,0,1,.47.4,1.586,1.586,0,0,1,.23.6,4.329,4.329,0,0,1,.07.747v3.874H1461Zm9.72,0a5.286,5.286,0,0,1-.13-0.748,8.344,8.344,0,0,1-.08-1.176V41.047a2.3,2.3,0,0,0-.61-1.82,2.821,2.821,0,0,0-1.88-.533,4.1,4.1,0,0,0-.9.1,2.452,2.452,0,0,0-.77.319,1.873,1.873,0,0,0-.55.585,2,2,0,0,0-.24.9h1.12a1.2,1.2,0,0,1,.41-0.9,1.582,1.582,0,0,1,.95-0.254,1.341,1.341,0,0,1,1.13.416,1.9,1.9,0,0,1,.32,1.17v0.39c-0.1-.008-0.2-0.015-0.31-0.02s-0.22-.006-0.34-0.006q-0.6,0-1.26.065a4.261,4.261,0,0,0-1.22.293,2.384,2.384,0,0,0-.92.663,1.79,1.79,0,0,0-.36,1.176,1.82,1.82,0,0,0,.19.871,1.731,1.731,0,0,0,.51.6,2.118,2.118,0,0,0,.73.358,3.227,3.227,0,0,0,.87.117,3.148,3.148,0,0,0,1.26-.234,2.2,2.2,0,0,0,.96-0.832c0.01,0.139.03,0.293,0.05,0.462s0.05,0.323.07,0.462h1Zm-1.28-2.314a2.776,2.776,0,0,1-.24.858,1.526,1.526,0,0,1-.55.6,1.829,1.829,0,0,1-.98.227,1.955,1.955,0,0,1-.55-0.078,1.389,1.389,0,0,1-.46-0.234,1.2,1.2,0,0,1-.32-0.39,1.151,1.151,0,0,1-.12-0.533,1.114,1.114,0,0,1,.28-0.793,1.762,1.762,0,0,1,.68-0.435,3.378,3.378,0,0,1,.88-0.188q0.465-.039.84-0.039h0.26a2.883,2.883,0,0,1,.33.026C1469.49,42.43,1469.47,42.755,1469.44,43.075Zm8.23,2.314V41.307a3.007,3.007,0,0,0-.53-1.885,2.178,2.178,0,0,0-1.82-.676,2.514,2.514,0,0,0-1.22.279,2.688,2.688,0,0,0-.92.852l-0.04-1.053h-1.13c0,0.1,0,.21.01,0.344s0.01,0.278.01,0.429,0.01,0.308.01,0.468,0.01,0.31.01,0.448v4.875h1.14V42.113a4.582,4.582,0,0,1,.09-0.9,2.482,2.482,0,0,1,.28-0.8,1.643,1.643,0,0,1,.56-0.572,1.6,1.6,0,0,1,.88-0.221,1.683,1.683,0,0,1,.83.175,1.23,1.23,0,0,1,.46.468,1.775,1.775,0,0,1,.19.676,7.015,7.015,0,0,1,.04.813v3.64h1.15Zm7.22-4.693a2.878,2.878,0,0,0-.62-1.072,2.754,2.754,0,0,0-1.01-.7,3.6,3.6,0,0,0-1.38-.247,3.5,3.5,0,0,0-1.37.254,2.86,2.86,0,0,0-1.02.7,3.061,3.061,0,0,0-.64,1.072,4,4,0,0,0-.22,1.365,4.376,4.376,0,0,0,.21,1.378,3.154,3.154,0,0,0,.63,1.1,2.809,2.809,0,0,0,1.01.721,3.528,3.528,0,0,0,1.39.26,3.357,3.357,0,0,0,1.37-.267,2.841,2.841,0,0,0,1.01-.734,3.258,3.258,0,0,0,.64-1.1A4.562,4.562,0,0,0,1484.89,40.7Zm-1.11,2.329a2.6,2.6,0,0,1-.36.867,1.9,1.9,0,0,1-.63.632,1.685,1.685,0,0,1-.93.241,1.744,1.744,0,0,1-.94-0.241,2,2,0,0,1-.62-0.625,2.724,2.724,0,0,1-.35-0.86,3.89,3.89,0,0,1-.11-0.958,3.74,3.74,0,0,1,.11-0.945,2.506,2.506,0,0,1,.35-0.828,1.814,1.814,0,0,1,.63-0.586,2.083,2.083,0,0,1,1.87,0,1.814,1.814,0,0,1,.63.586,2.506,2.506,0,0,1,.35.828,3.74,3.74,0,0,1,.11.945A3.835,3.835,0,0,1,1483.78,43.025Zm5.38,2.351V44.505l-0.31.046a2.325,2.325,0,0,1-.3.019,1.6,1.6,0,0,1-.48-0.058,0.5,0.5,0,0,1-.27-0.189,0.591,0.591,0,0,1-.12-0.338,3.624,3.624,0,0,1-.03-0.507V39.617h1.47V38.824h-1.47V37.069l-1.14.481v1.274h-1.29v0.793h1.29v4.316a1.476,1.476,0,0,0,.4,1.17,1.776,1.776,0,0,0,1.19.351,7.588,7.588,0,0,0,1.06-.078h0Zm6.37,0.013V41.307a3.985,3.985,0,0,0-.13-1.085,1.941,1.941,0,0,0-.4-0.806,1.8,1.8,0,0,0-.73-0.507,3.012,3.012,0,0,0-1.1-.175,2.5,2.5,0,0,0-1.21.279,2.588,2.588,0,0,0-.9.839V35.99h-1.15v9.4h1.15V41.918a4.14,4.14,0,0,1,.09-0.864,2.372,2.372,0,0,1,.31-0.741,1.83,1.83,0,0,1,2.23-.533,1.23,1.23,0,0,1,.46.468,1.785,1.785,0,0,1,.19.683,7.178,7.178,0,0,1,.04.819v3.64h1.15Zm6.9-3.068a6.749,6.749,0,0,0-.13-1.366,3.189,3.189,0,0,0-.46-1.146,2.3,2.3,0,0,0-.87-0.79,2.807,2.807,0,0,0-1.36-.3,3.257,3.257,0,0,0-1.39.273,2.725,2.725,0,0,0-.97.746,3.012,3.012,0,0,0-.57,1.109,4.671,4.671,0,0,0-.19,1.375,4.372,4.372,0,0,0,.19,1.337,2.849,2.849,0,0,0,.56,1.051,2.5,2.5,0,0,0,.95.681,3.363,3.363,0,0,0,1.33.24,3.216,3.216,0,0,0,1.9-.553,2.485,2.485,0,0,0,.97-1.709h-1.09a1.746,1.746,0,0,1-.55,1.1,1.626,1.626,0,0,1-1.14.4,1.911,1.911,0,0,1-.87-0.188,1.769,1.769,0,0,1-.61-0.514,2.142,2.142,0,0,1-.37-0.741,2.8,2.8,0,0,1-.13-0.871v-0.13h4.8Zm-4.77-.767a2.927,2.927,0,0,1,.17-0.775,2.737,2.737,0,0,1,.37-0.665,1.716,1.716,0,0,1,.58-0.459,1.744,1.744,0,0,1,.79-0.168,1.635,1.635,0,0,1,.77.175,1.609,1.609,0,0,1,.55.459,1.821,1.821,0,0,1,.31.659,2.856,2.856,0,0,1,.1.775h-3.64Zm9.27-1.664V38.811a1.772,1.772,0,0,0-.18-0.02c-0.06,0-.13-0.007-0.19-0.007a2.494,2.494,0,0,0-1.16.254,2.237,2.237,0,0,0-.84.838l-0.05-1.053h-1.12c0.03,0.642.04,1.283,0.04,1.924v4.641h1.15V41.853a2.548,2.548,0,0,1,.38-1.475,1.643,1.643,0,0,1,1.41-.54c0.09,0,.19,0,0.28.013a2.747,2.747,0,0,1,.28.039h0Zm9.16,3.3-0.04-.013h-1.07a1.769,1.769,0,0,1-.49,1.154,1.539,1.539,0,0,1-1.15.432,1.746,1.746,0,0,1-.93-0.235,1.923,1.923,0,0,1-.61-0.612,2.65,2.65,0,0,1-.35-0.847,4.279,4.279,0,0,1-.1-0.939,4.573,4.573,0,0,1,.1-0.977,2.627,2.627,0,0,1,.34-0.86,1.858,1.858,0,0,1,.62-0.613,1.882,1.882,0,0,1,.98-0.235,1.479,1.479,0,0,1,1.1.4,1.675,1.675,0,0,1,.46,1.1h1.12a2.36,2.36,0,0,0-.83-1.736,2.951,2.951,0,0,0-1.85-.566,3.452,3.452,0,0,0-1.41.267,2.937,2.937,0,0,0-1.02.741,3.241,3.241,0,0,0-.61,1.124,4.544,4.544,0,0,0-.21,1.4,4.2,4.2,0,0,0,.21,1.358,2.941,2.941,0,0,0,.61,1.06,2.8,2.8,0,0,0,.99.689,3.553,3.553,0,0,0,1.37.247,3.666,3.666,0,0,0,1.05-.143,2.5,2.5,0,0,0,.86-0.435,2.281,2.281,0,0,0,.6-0.735,2.527,2.527,0,0,0,.26-1.027h0Zm6.63-2.5a2.878,2.878,0,0,0-.62-1.072,2.754,2.754,0,0,0-1.01-.7,3.6,3.6,0,0,0-1.38-.247,3.5,3.5,0,0,0-1.37.254,2.86,2.86,0,0,0-1.02.7,3.061,3.061,0,0,0-.64,1.072,4,4,0,0,0-.22,1.365,4.376,4.376,0,0,0,.21,1.378,3.154,3.154,0,0,0,.63,1.1,2.809,2.809,0,0,0,1.01.721,3.528,3.528,0,0,0,1.39.26,3.357,3.357,0,0,0,1.37-.267,2.841,2.841,0,0,0,1.01-.734,3.258,3.258,0,0,0,.64-1.1A4.562,4.562,0,0,0,1522.72,40.7Zm-1.11,2.329a2.6,2.6,0,0,1-.36.867,1.9,1.9,0,0,1-.63.632,1.685,1.685,0,0,1-.93.241,1.744,1.744,0,0,1-.94-0.241,2,2,0,0,1-.62-0.625,2.724,2.724,0,0,1-.35-0.86,3.89,3.89,0,0,1-.11-0.958,3.74,3.74,0,0,1,.11-0.945,2.506,2.506,0,0,1,.35-0.828,1.814,1.814,0,0,1,.63-0.586,2.083,2.083,0,0,1,1.87,0,1.814,1.814,0,0,1,.63.586,2.506,2.506,0,0,1,.35.828,4.259,4.259,0,0,1,.11.945A4.383,4.383,0,0,1,1521.61,43.025Zm7.91,2.364c-0.02-.572-0.02-1.137-0.02-1.7V38.824h-1.15V42.3a4.018,4.018,0,0,1-.09.864,2.216,2.216,0,0,1-.3.735,1.5,1.5,0,0,1-.55.514,1.8,1.8,0,0,1-.87.188,1.693,1.693,0,0,1-.82-0.169,1.121,1.121,0,0,1-.46-0.462,1.789,1.789,0,0,1-.2-0.683c-0.02-.26-0.04-0.533-0.04-0.819v-3.64h-1.14v4.082a4.443,4.443,0,0,0,.12,1.085,2.081,2.081,0,0,0,.41.806,1.715,1.715,0,0,0,.72.5,3.158,3.158,0,0,0,1.1.169,2.466,2.466,0,0,0,1.21-.273,2.876,2.876,0,0,0,.91-0.845l0.05,1.04h1.12Zm7.06,0V41.307a2.946,2.946,0,0,0-.53-1.885,2.156,2.156,0,0,0-1.81-.676,2.527,2.527,0,0,0-1.23.279,2.662,2.662,0,0,0-.91.852l-0.04-1.053h-1.13v0.344c0.01,0.135.01,0.278,0.02,0.429s0,0.308.01,0.468,0.01,0.31.01,0.448v4.875h1.14V42.113a5.475,5.475,0,0,1,.08-0.9,2.754,2.754,0,0,1,.29-0.8,1.614,1.614,0,0,1,.55-0.572,1.949,1.949,0,0,1,1.71-.045,1.1,1.1,0,0,1,.46.468,1.78,1.78,0,0,1,.2.676c0.02,0.256.04,0.526,0.04,0.813v3.64h1.14Zm4.51-.013V44.505c-0.11.017-.21,0.032-0.31,0.046a2.213,2.213,0,0,1-.3.019,1.484,1.484,0,0,1-.47-0.058,0.574,0.574,0,0,1-.28-0.189,0.783,0.783,0,0,1-.12-0.338,3.624,3.624,0,0,1-.03-0.507V39.617h1.47V38.824h-1.47V37.069l-1.14.481v1.274h-1.29v0.793h1.29v4.316a1.476,1.476,0,0,0,.4,1.17,1.787,1.787,0,0,0,1.2.351,7.343,7.343,0,0,0,1.05-.078h0Zm4.25-5.486V38.811c-0.05-.009-0.11-0.015-0.17-0.02s-0.13-.007-0.19-0.007a2.465,2.465,0,0,0-1.16.254,2.1,2.1,0,0,0-.84.838l-0.05-1.053h-1.12c0.02,0.642.04,1.283,0.04,1.924v4.641h1.14V41.853a2.475,2.475,0,0,1,.39-1.475,1.622,1.622,0,0,1,1.4-.54c0.1,0,.19,0,0.29.013a2.217,2.217,0,0,1,.27.039h0Zm6.26-1.066h-1.16l-2.05,5.369-2.07-5.369h-1.3l2.79,6.552-1.08,2.483h1.15Zm1.41,6.565V44.1h-1.31v1.287h1.31Z" transform="translate(-1163)"/>
  </g>
</svg>
