<?xml version="1.0" encoding="UTF-8"?><svg id="Layer_1" xmlns="http://www.w3.org/2000/svg" viewBox="0 0 728 90"><defs><style>.cls-1{fill:#fff;}.cls-2{fill:#db0011;}</style></defs><path class="cls-1" d="m67.37,65.62h-3.01v2.97h-1.51v-6.95h1.51v2.84h3.01v-2.84h1.51v6.95h-1.51v-2.97Z"/><path class="cls-1" d="m72.49,68.71c-1.5,0-2.73-.6-2.76-2.26h1.51c.02.74.45,1.18,1.28,1.18.61,0,1.31-.31,1.31-1,0-.54-.47-.71-1.25-.94l-.5-.14c-1.1-.32-2.18-.74-2.18-1.99,0-1.55,1.44-2.07,2.76-2.07s2.52.47,2.53,2.01h-1.51c-.06-.63-.42-1-1.13-1-.56,0-1.11.3-1.11.91,0,.51.46.66,1.44.97l.58.18c1.19.37,1.94.79,1.94,1.94,0,1.59-1.53,2.2-2.89,2.2Z"/><path class="cls-1" d="m76.23,61.64h2.41c.76,0,1.07.02,1.37.09.85.19,1.48.74,1.48,1.68s-.57,1.35-1.38,1.57c.94.17,1.64.65,1.64,1.68,0,1.58-1.56,1.94-2.78,1.94h-2.73v-6.95Zm2.42,2.89c.66,0,1.33-.13,1.33-.94,0-.72-.63-.91-1.24-.91h-1.05v1.85h.96Zm.14,3.01c.7,0,1.39-.16,1.39-1.01s-.6-1.02-1.31-1.02h-1.19v2.03h1.1Z"/><path class="cls-1" d="m85.67,68.71c-2.24,0-3.25-1.43-3.25-3.55s1.11-3.66,3.32-3.66c1.38,0,2.73.62,2.77,2.19h-1.56c-.08-.69-.54-1.05-1.21-1.05-1.35,0-1.77,1.46-1.77,2.58s.41,2.39,1.72,2.39c.68,0,1.18-.37,1.29-1.07h1.57c-.17,1.57-1.44,2.17-2.88,2.17Z"/><g><rect class="cls-1" x="35.2" y="56.81" width="16.59" height="16.59"/><polygon class="cls-2" points="51.79 73.41 60.09 65.11 51.79 56.81 51.79 56.81 51.79 73.41"/><polygon class="cls-2" points="35.2 73.41 26.9 65.11 35.2 56.81 35.2 56.81 35.2 73.41"/><polygon class="cls-2" points="51.79 56.81 43.49 65.11 35.2 56.81 35.2 56.81 51.79 56.81"/><polygon class="cls-2" points="35.2 73.41 43.49 65.11 51.79 73.41 51.79 73.41 35.2 73.41"/></g><path class="cls-1" d="m103.16,68.71c-2.21,0-3.17-1.61-3.17-3.63s1.01-3.65,3.18-3.65,3.17,1.55,3.17,3.6-.96,3.68-3.18,3.68Zm0-6.56c-1.64,0-2.21,1.5-2.21,2.9s.54,2.93,2.21,2.93,2.22-1.51,2.22-2.93-.52-2.91-2.22-2.91h0Z"/><path class="cls-1" d="m109.59,68.68c-.71,0-1.14-.27-1.55-.83v2.58h-.85v-5.35c0-.46,0-.94-.03-1.4h.85l.03.85c.38-.64.91-.94,1.66-.94,1.44,0,2.07,1.17,2.07,2.47,0,1.33-.7,2.62-2.18,2.62Zm-.09-4.48c-1.09,0-1.47,1.02-1.47,1.95,0,.88.31,1.92,1.37,1.92s1.47-1.01,1.47-1.95c0-.87-.32-1.92-1.37-1.92h0Z"/><path class="cls-1" d="m113.08,66.39c0,.9.49,1.73,1.48,1.73.7,0,1.16-.43,1.26-1.12h.82c-.19,1.16-1.03,1.69-2.15,1.69-1.52,0-2.26-1.02-2.26-2.48s.74-2.62,2.33-2.62,2.11,1.27,2.11,2.7h-3.59v.1Zm1.45-2.21c-.9,0-1.35.74-1.43,1.55h2.72c0-.81-.4-1.55-1.29-1.55Z"/><path class="cls-1" d="m120.76,65.87c0-.85-.1-1.59-1.14-1.59s-1.35.96-1.35,1.87v2.45h-.86v-3.64c0-.42-.02-.98-.03-1.26h.85l.03.79c.4-.56.89-.85,1.6-.85,1.28,0,1.75.71,1.75,1.91v3.05h-.86v-2.72Z"/><path class="cls-1" d="m122.56,61.56h.95v.86h-.95v-.86Zm.05,2.12h.85v4.91h-.85v-4.91Z"/><path class="cls-1" d="m127.83,65.87c0-.85-.1-1.59-1.14-1.59s-1.35.96-1.35,1.87v2.45h-.85v-3.64c0-.42-.02-.98-.03-1.26h.85l.03.79c.4-.56.89-.85,1.6-.85,1.29,0,1.75.71,1.75,1.91v3.05h-.85v-2.72Z"/><path class="cls-1" d="m134.02,65.38v1.82c0,1.88-.09,3.34-2.31,3.34-.99,0-2.03-.3-2.03-1.5h.84c0,.7.59.91,1.18.91,1.03,0,1.37-.57,1.45-1.48.02-.26.02-.54.02-.81-.34.56-.96.89-1.62.87-1.47,0-2.16-1.12-2.16-2.47s.72-2.48,2.15-2.48c.73,0,1.29.29,1.66.92v-.84h.87c-.04.56-.04,1.14-.04,1.7Zm-2.27-1.2c-1.08,0-1.45.99-1.45,1.91s.39,1.87,1.44,1.87,1.44-1.01,1.44-1.94c0-.87-.44-1.84-1.43-1.84h0Z"/><path class="cls-1" d="m141.26,67.81c-.41.56-.87.84-1.58.84-1.29,0-1.76-.7-1.76-1.91v-3.05h.86v2.72c0,.85.1,1.59,1.14,1.59s1.35-.83,1.35-1.72v-2.59h.86v2.38c0,.84,0,1.68.02,2.53h-.83l-.04-.78Z"/><path class="cls-1" d="m145.55,68.68c-.71,0-1.14-.27-1.54-.83v2.58h-.86v-5.35c0-.46,0-.94-.03-1.4h.85l.03.85c.38-.64.91-.94,1.66-.94,1.44,0,2.07,1.17,2.07,2.47,0,1.33-.7,2.62-2.18,2.62Zm-.09-4.48c-1.09,0-1.47,1.02-1.47,1.95,0,.88.31,1.92,1.37,1.92s1.47-1.01,1.47-1.95c0-.87-.32-1.92-1.37-1.92h0Z"/><path class="cls-1" d="m154.31,67.9c-.41.59-.95.8-1.66.8-.91,0-1.72-.46-1.72-1.46,0-1.47,1.61-1.64,2.81-1.64.18,0,.35,0,.49.02v-.29c0-.76-.27-1.18-1.08-1.18-.6,0-.96.22-1.02.87h-.83c.05-1.07.91-1.42,1.84-1.42,1.25,0,1.87.48,1.87,1.76v1.81c0,.48.05.97.16,1.44h-.75c-.04-.23-.08-.46-.09-.69Zm-.52-1.79c-.76,0-2,.09-2,1.09,0,.6.52.92,1.08.92,1.23,0,1.36-1,1.36-1.99-.15-.02-.29-.02-.44-.02h0Z"/><path class="cls-1" d="m163.7,68.59l-1.37-4.06-1.4,4.06h-.87l-1.74-4.91h.95l1.26,4.02,1.35-4.02h.98l1.32,3.97,1.25-3.97h.86l-1.75,4.91h-.84Z"/><path class="cls-1" d="m168.72,68.7c-1.56,0-2.42-1.1-2.42-2.58s.9-2.54,2.43-2.54,2.4,1.04,2.4,2.54-.89,2.58-2.41,2.58Zm0-4.51c-1.1,0-1.51.96-1.51,1.92s.41,2,1.51,2,1.52-1.07,1.52-2c0-.96-.42-1.92-1.52-1.92h0Z"/><path class="cls-1" d="m174.06,64.44c-1.01,0-1.34.57-1.34,1.51v2.64h-.85v-3.47c0-.48,0-.96-.03-1.44h.84l.04.79c.35-.57.83-.82,1.5-.82.09,0,.18,0,.27.02v.81c-.14-.02-.28-.03-.42-.04Z"/><path class="cls-1" d="m174.93,61.56h.86v7.02h-.86v-7.02Z"/><path class="cls-1" d="m180.26,67.84c-.42.57-.85.84-1.57.84-1.49,0-2.15-1.24-2.15-2.58s.67-2.52,2.12-2.52c.74,0,1.22.25,1.6.87v-2.9h.85v5.6c0,.47,0,.95.03,1.43h-.84l-.05-.75Zm-1.47-3.65c-1.06,0-1.36,1.05-1.36,1.93,0,.95.36,1.93,1.47,1.93s1.37-1.03,1.37-1.91c0-.93-.39-1.95-1.48-1.95h0Z"/><path class="cls-1" d="m187.1,68.7c-1.56,0-2.42-1.1-2.42-2.58s.9-2.54,2.43-2.54,2.4,1.04,2.4,2.54c0,1.45-.88,2.58-2.41,2.58Zm0-4.51c-1.1,0-1.52.96-1.52,1.92s.41,2,1.52,2,1.52-1.07,1.52-2c0-.96-.42-1.92-1.52-1.92h0Z"/><path class="cls-1" d="m192.2,62.14c-.48,0-.8.12-.8.65v.89h1.1v.59h-1.1v4.31h-.86v-4.31h-.98v-.59h.98v-.47c0-.99.14-1.71,1.32-1.71.23,0,.47,0,.71.03v.62c-.13,0-.25-.02-.38-.02Z"/><path class="cls-1" d="m197.91,68.7c-1.57,0-2.42-1.1-2.42-2.58s.9-2.54,2.43-2.54,2.4,1.04,2.4,2.54c0,1.45-.88,2.58-2.41,2.58Zm0-4.51c-1.1,0-1.52.96-1.52,1.92s.41,2,1.52,2,1.51-1.07,1.51-2c0-.96-.42-1.92-1.51-1.92h0Z"/><path class="cls-1" d="m203.45,68.68c-.71,0-1.14-.27-1.54-.83v2.58h-.86v-5.35c0-.46,0-.94-.03-1.4h.85l.03.85c.38-.64.91-.94,1.66-.94,1.44,0,2.07,1.17,2.07,2.47s-.7,2.62-2.18,2.62Zm-.09-4.48c-1.09,0-1.47,1.02-1.47,1.95,0,.88.31,1.92,1.37,1.92s1.47-1.01,1.47-1.95c0-.87-.32-1.92-1.37-1.92h0Z"/><path class="cls-1" d="m208.76,68.68c-.71,0-1.14-.27-1.55-.83v2.58h-.85v-5.35c0-.46,0-.94-.03-1.4h.85l.03.85c.38-.64.91-.94,1.66-.94,1.44,0,2.07,1.17,2.07,2.47,0,1.33-.7,2.62-2.18,2.62Zm-.09-4.48c-1.09,0-1.47,1.02-1.47,1.95,0,.88.31,1.92,1.37,1.92s1.47-1.01,1.47-1.95c0-.87-.32-1.92-1.37-1.92h0Z"/><path class="cls-1" d="m213.8,68.7c-1.57,0-2.42-1.1-2.42-2.58s.9-2.54,2.43-2.54,2.4,1.04,2.4,2.54-.88,2.58-2.41,2.58Zm0-4.51c-1.1,0-1.52.96-1.52,1.92s.41,2,1.52,2,1.51-1.07,1.51-2-.42-1.92-1.51-1.92h0Z"/><path class="cls-1" d="m219.14,64.44c-1.01,0-1.34.57-1.34,1.51v2.64h-.85v-3.47c0-.48,0-.96-.03-1.44h.84l.04.79c.35-.57.83-.82,1.5-.82.09,0,.18,0,.27.02v.81c-.14-.02-.28-.03-.42-.04Z"/><path class="cls-1" d="m222.07,68.64c-.79,0-1.2-.32-1.2-1.14v-3.23h-.96v-.59h.96v-.95l.85-.36v1.31h1.1v.59h-1.1v2.89c0,.59.08.82.67.82.15,0,.31-.02.46-.05v.65c-.26.04-.52.06-.79.06Z"/><path class="cls-1" d="m226.69,67.81c-.41.56-.87.84-1.58.84-1.29,0-1.76-.7-1.76-1.91v-3.05h.85v2.72c0,.85.1,1.59,1.14,1.59s1.35-.83,1.35-1.72v-2.59h.85v2.38c0,.84,0,1.68.02,2.53h-.84l-.04-.78Z"/><path class="cls-1" d="m231.93,65.87c0-.85-.1-1.59-1.14-1.59s-1.35.96-1.35,1.87v2.45h-.85v-3.64c0-.42-.02-.98-.03-1.26h.85l.03.79c.4-.56.89-.85,1.6-.85,1.29,0,1.75.71,1.75,1.91v3.05h-.85v-2.72Z"/><path class="cls-1" d="m233.72,61.56h.95v.86h-.95v-.86Zm.05,2.12h.85v4.91h-.85v-4.91Z"/><path class="cls-1" d="m237.25,68.64c-.79,0-1.2-.32-1.2-1.14v-3.23h-.96v-.59h.96v-.95l.86-.36v1.31h1.1v.59h-1.1v2.89c0,.59.08.82.67.82.15,0,.31-.02.46-.05v.65c-.26.04-.52.06-.79.06Z"/><path class="cls-1" d="m239.52,70.43l.81-1.86-2.09-4.9h.97l1.54,4.01,1.54-4.01h.86l-2.78,6.75h-.86Z"/><rect class="cls-1" x="94.02" y="56.81" width=".48" height="16.59"/></svg>