<svg xmlns="http://www.w3.org/2000/svg" width="728" height="90" viewBox="0 0 728 90">
  <defs>
    <style>
      .cls-1 {
        fill: #fff;
        fill-rule: evenodd;
      }
    </style>
  </defs>
  <g id="International_Engage_Banner_728x90_Frame_1" data-name="International Engage Banner 728x90 Frame 1">
    <path id="Why_can_t_your_bank_greet_you_upon_arrival_copy" data-name="Why can’t your bank greet you upon arrival? copy" class="cls-1" d="M451.02,20.39h-1.28l-3.36,13.32-4.42-13.32h-1.58l-4.24,13.32-3.38-13.32h-1.38l3.78,14.46h1.82l4.16-13.1,4.3,13.1h1.78Zm9.16,14.46V28.67a7.657,7.657,0,0,0-.17-1.7,3.14,3.14,0,0,0-.58-1.26,2.555,2.555,0,0,0-1.09-.79,4.7,4.7,0,0,0-1.72-.27,3.842,3.842,0,0,0-1.88.44,4.045,4.045,0,0,0-1.4,1.34V20.39h-1.22V34.85h1.22V29.47a6.293,6.293,0,0,1,.16-1.43,3.6,3.6,0,0,1,.52-1.22,2.579,2.579,0,0,1,.95-0.84,3.089,3.089,0,0,1,1.45-.31,2.854,2.854,0,0,1,1.37.28,1.879,1.879,0,0,1,.77.76,3.018,3.018,0,0,1,.33,1.11,11.975,11.975,0,0,1,.07,1.33v5.7h1.22Zm10.98-10.1h-1.22l-3.36,8.46-3.38-8.46h-1.46l4.24,10.04-1.6,3.86h1.24Zm14.62,6.84h-1.14a2.693,2.693,0,0,1-.88,1.87,2.822,2.822,0,0,1-1.94.69,3.081,3.081,0,0,1-1.55-.37,3.21,3.21,0,0,1-1.07-.98,4.322,4.322,0,0,1-.62-1.38,6.234,6.234,0,0,1-.2-1.57,7.143,7.143,0,0,1,.19-1.66,4.16,4.16,0,0,1,.61-1.41,3.15,3.15,0,0,1,1.09-.98,3.376,3.376,0,0,1,1.65-.37,2.468,2.468,0,0,1,2.68,2.46h1.18a3.531,3.531,0,0,0-1.18-2.56,4.1,4.1,0,0,0-2.7-.86,4.873,4.873,0,0,0-2.12.43,4.326,4.326,0,0,0-1.5,1.16,4.924,4.924,0,0,0-.9,1.72,7.311,7.311,0,0,0-.3,2.13,6.745,6.745,0,0,0,.3,2.06,4.656,4.656,0,0,0,.89,1.63,4.069,4.069,0,0,0,1.47,1.08,5.048,5.048,0,0,0,2.06.39,4.155,4.155,0,0,0,2.75-.89,3.652,3.652,0,0,0,1.23-2.59h0Zm9.44,3.26q-0.1-.96-0.15-1.87t-0.05-1.87v-3a3.565,3.565,0,0,0-.89-2.71,3.955,3.955,0,0,0-2.77-.83,5.68,5.68,0,0,0-1.3.15,3.385,3.385,0,0,0-1.13.48,2.608,2.608,0,0,0-.8.86,2.512,2.512,0,0,0-.31,1.29h1.2a1.862,1.862,0,0,1,.74-1.47,2.962,2.962,0,0,1,1.6-.39,2.4,2.4,0,0,1,1.9.65,2.923,2.923,0,0,1,.56,1.95v0.35a3.252,3.252,0,0,1-.02.35h-0.52q-0.619,0-1.32.02a12.426,12.426,0,0,0-1.4.12,7.6,7.6,0,0,0-1.33.31,3.883,3.883,0,0,0-1.12.58,2.7,2.7,0,0,0-.78.93,2.933,2.933,0,0,0-.29,1.36,2.838,2.838,0,0,0,.29,1.32,2.608,2.608,0,0,0,.78.92,3.5,3.5,0,0,0,1.12.54,4.817,4.817,0,0,0,1.33.18,4.709,4.709,0,0,0,1.94-.36,3.521,3.521,0,0,0,1.44-1.32c0.027,0.24.053,0.483,0.08,0.73s0.053,0.49.08,0.73h1.12Zm-1.45-3.52a4.093,4.093,0,0,1-.38,1.44,2.491,2.491,0,0,1-.92,1.03,3.124,3.124,0,0,1-1.69.39,3.329,3.329,0,0,1-.93-0.13,2.37,2.37,0,0,1-.8-0.4,2.025,2.025,0,0,1-.56-0.67,1.95,1.95,0,0,1-.21-0.92,1.847,1.847,0,0,1,.48-1.35,2.982,2.982,0,0,1,1.17-.73,5.553,5.553,0,0,1,1.48-.29q0.791-.05,1.43-0.05c0.173,0,.34,0,0.5.01s0.327,0.017.5,0.03Q493.84,30.53,493.77,31.33Zm12.29,3.52V28.67a7.555,7.555,0,0,0-.17-1.68,3.21,3.21,0,0,0-.57-1.26,2.55,2.55,0,0,0-1.09-.8,4.567,4.567,0,0,0-1.71-.28,3.885,3.885,0,0,0-1.9.43,4.122,4.122,0,0,0-1.4,1.35l-0.08-1.68h-1.2q0,0.72.03,1.43T498,27.61v7.24h1.22V29.47a6.293,6.293,0,0,1,.16-1.43,3.6,3.6,0,0,1,.52-1.22,2.579,2.579,0,0,1,.95-0.84,3.089,3.089,0,0,1,1.45-.31,2.854,2.854,0,0,1,1.37.28,1.879,1.879,0,0,1,.77.76,3.018,3.018,0,0,1,.33,1.11,11.975,11.975,0,0,1,.07,1.33v5.7h1.22Zm5.12-14.46h-1.62l-0.92,4.12h1.08Zm7.08,14.44V33.79l-0.49.08a2.768,2.768,0,0,1-.43.04,2.326,2.326,0,0,1-.76-0.1,0.868,0.868,0,0,1-.43-0.31,1.144,1.144,0,0,1-.19-0.53,5.969,5.969,0,0,1-.04-0.74V25.65h2.26v-0.9h-2.26V22.13l-1.22.54v2.08h-2v0.9h2v7.12a1.9,1.9,0,0,0,2.14,2.16q0.36,0,.71-0.03t0.71-.07h0Zm14.98-10.08h-1.22l-3.36,8.46-3.38-8.46h-1.46l4.24,10.04-1.6,3.86h1.24Zm9.74,2.93a4.752,4.752,0,0,0-.89-1.65,4,4,0,0,0-1.48-1.09,5.065,5.065,0,0,0-2.05-.39,4.889,4.889,0,0,0-2.04.4,4.219,4.219,0,0,0-1.48,1.1,4.805,4.805,0,0,0-.91,1.64,6.469,6.469,0,0,0-.31,2.04,7.038,7.038,0,0,0,.3,2.09,4.938,4.938,0,0,0,.89,1.69,4.2,4.2,0,0,0,1.48,1.14,4.8,4.8,0,0,0,2.07.42,4.548,4.548,0,0,0,2.02-.43,4.317,4.317,0,0,0,1.48-1.17,5.2,5.2,0,0,0,.91-1.71,6.617,6.617,0,0,0,.31-2.03A6.774,6.774,0,0,0,542.98,27.68Zm-1.2,3.607a4.677,4.677,0,0,1-.61,1.417,3.226,3.226,0,0,1-1.06,1.017,2.962,2.962,0,0,1-1.55.389,3,3,0,0,1-1.57-.389,3.368,3.368,0,0,1-1.07-1.007,4.261,4.261,0,0,1-.61-1.407,6.726,6.726,0,0,1-.19-1.586,6.055,6.055,0,0,1,.2-1.566,3.982,3.982,0,0,1,.62-1.327,3.14,3.14,0,0,1,1.07-.928,3.614,3.614,0,0,1,3.1,0,3.14,3.14,0,0,1,1.07.928,3.843,3.843,0,0,1,.61,1.337A6.348,6.348,0,0,1,541.78,31.287Zm11.78,3.563q-0.06-1.5-.06-3.02V24.75h-1.22v5.28a6.95,6.95,0,0,1-.15,1.46,3.552,3.552,0,0,1-.51,1.24,2.737,2.737,0,0,1-.94.87,2.878,2.878,0,0,1-1.44.33,2.646,2.646,0,0,1-1.3-.28,2.11,2.11,0,0,1-.79-0.76,3.06,3.06,0,0,1-.39-1.11,8.441,8.441,0,0,1-.1-1.33v-5.7h-1.22v6.18a7.228,7.228,0,0,0,.18,1.7,3.163,3.163,0,0,0,.6,1.26,2.618,2.618,0,0,0,1.11.79,4.718,4.718,0,0,0,1.71.27,3.92,3.92,0,0,0,1.88-.41,4.216,4.216,0,0,0,1.4-1.31l0.04,1.62h1.2Zm7.8-8.9V24.73c-0.093-.013-0.187-0.023-0.28-0.03s-0.187-.01-0.28-0.01a3.936,3.936,0,0,0-1.78.38,3.381,3.381,0,0,0-1.32,1.26l-0.08-1.58h-1.2q0.019,0.74.04,1.48t0.02,1.48v7.14h1.22V29.13a6.063,6.063,0,0,1,.14-1.35,2.569,2.569,0,0,1,.47-1.03,2.156,2.156,0,0,1,.87-0.65,3.489,3.489,0,0,1,1.36-.23,3.988,3.988,0,0,1,.82.08h0Zm15.27,1.8a5.033,5.033,0,0,0-.76-1.63,3.734,3.734,0,0,0-1.3-1.13,3.977,3.977,0,0,0-1.89-.42,3.7,3.7,0,0,0-3.48,2.06V20.39h-1.22V31.83q0,0.76-.02,1.51t-0.06,1.51h1.2l0.1-1.68a4.676,4.676,0,0,0,1.35,1.38,3.457,3.457,0,0,0,1.87.46,3.994,3.994,0,0,0,3.35-1.65,5.422,5.422,0,0,0,.83-1.72,7.127,7.127,0,0,0,.28-1.99A7.2,7.2,0,0,0,576.63,27.75Zm-1.22,3.594a4.13,4.13,0,0,1-.56,1.363,2.885,2.885,0,0,1-2.57,1.343,2.709,2.709,0,0,1-1.47-.371,2.88,2.88,0,0,1-.95-0.972,4.217,4.217,0,0,1-.51-1.353,7.717,7.717,0,0,1-.15-1.514,6.82,6.82,0,0,1,.18-1.553,4.413,4.413,0,0,1,.57-1.383,3.055,3.055,0,0,1,1.03-.992,2.961,2.961,0,0,1,1.54-.381,2.6,2.6,0,0,1,1.47.391,2.909,2.909,0,0,1,.94,1.012,4.629,4.629,0,0,1,.5,1.373,7.619,7.619,0,0,1,.15,1.494A7.087,7.087,0,0,1,575.41,31.344Zm11.13,3.506q-0.1-.96-0.15-1.87t-0.05-1.87v-3a3.565,3.565,0,0,0-.89-2.71,3.955,3.955,0,0,0-2.77-.83,5.68,5.68,0,0,0-1.3.15,3.385,3.385,0,0,0-1.13.48,2.608,2.608,0,0,0-.8.86,2.512,2.512,0,0,0-.31,1.29h1.2a1.862,1.862,0,0,1,.74-1.47,2.962,2.962,0,0,1,1.6-.39,2.4,2.4,0,0,1,1.9.65,2.923,2.923,0,0,1,.56,1.95v0.35a3.252,3.252,0,0,1-.02.35H584.6q-0.62,0-1.32.02a12.426,12.426,0,0,0-1.4.12,7.6,7.6,0,0,0-1.33.31,3.883,3.883,0,0,0-1.12.58,2.7,2.7,0,0,0-.78.93,2.933,2.933,0,0,0-.29,1.36,2.838,2.838,0,0,0,.29,1.32,2.608,2.608,0,0,0,.78.92,3.5,3.5,0,0,0,1.12.54,4.817,4.817,0,0,0,1.33.18,4.709,4.709,0,0,0,1.94-.36,3.521,3.521,0,0,0,1.44-1.32c0.027,0.24.053,0.483,0.08,0.73s0.053,0.49.08,0.73h1.12Zm-1.45-3.52a4.093,4.093,0,0,1-.38,1.44,2.491,2.491,0,0,1-.92,1.03,3.124,3.124,0,0,1-1.69.39,3.329,3.329,0,0,1-.93-0.13,2.37,2.37,0,0,1-.8-0.4,2.025,2.025,0,0,1-.56-0.67,1.95,1.95,0,0,1-.21-0.92,1.847,1.847,0,0,1,.48-1.35,2.982,2.982,0,0,1,1.17-.73,5.553,5.553,0,0,1,1.48-.29q0.79-.05,1.43-0.05c0.173,0,.34,0,0.5.01s0.327,0.017.5,0.03Q585.16,30.53,585.09,31.33Zm12.29,3.52V28.67a7.555,7.555,0,0,0-.17-1.68,3.21,3.21,0,0,0-.57-1.26,2.55,2.55,0,0,0-1.09-.8,4.567,4.567,0,0,0-1.71-.28,3.885,3.885,0,0,0-1.9.43,4.122,4.122,0,0,0-1.4,1.35l-0.08-1.68h-1.2q0,0.72.03,1.43t0.03,1.43v7.24h1.22V29.47a6.293,6.293,0,0,1,.16-1.43,3.6,3.6,0,0,1,.52-1.22,2.579,2.579,0,0,1,.95-0.84,3.089,3.089,0,0,1,1.45-.31,2.854,2.854,0,0,1,1.37.28,1.879,1.879,0,0,1,.77.76,3.018,3.018,0,0,1,.33,1.11,11.975,11.975,0,0,1,.07,1.33v5.7h1.22Zm11.08,0-5.3-5.74,4.9-4.36h-1.64l-4.78,4.38,5.22,5.72h1.6Zm-6.94,0V20.39H600.3V34.85h1.22Zm20.74-10.1q0,0.46-.01.93t-0.01.93a3.68,3.68,0,0,0-3.48-2.04,3.958,3.958,0,0,0-3.28,1.57,4.968,4.968,0,0,0-.81,1.64,6.887,6.887,0,0,0-.27,1.93,7.265,7.265,0,0,0,.26,1.98,4.513,4.513,0,0,0,.81,1.61,3.91,3.91,0,0,0,1.38,1.09,4.494,4.494,0,0,0,1.97.4,3.945,3.945,0,0,0,1.96-.46,4.012,4.012,0,0,0,1.42-1.42q0,0.94-.06,1.85a4.811,4.811,0,0,1-.37,1.62,2.6,2.6,0,0,1-.98,1.15,3.435,3.435,0,0,1-1.89.44,4.754,4.754,0,0,1-.99-0.1,2.484,2.484,0,0,1-.84-0.34,1.783,1.783,0,0,1-.59-0.63,1.948,1.948,0,0,1-.22-0.97h-1.24a2.693,2.693,0,0,0,.35,1.43,2.613,2.613,0,0,0,.91.9,4.012,4.012,0,0,0,1.27.47,7.5,7.5,0,0,0,1.45.14,4.583,4.583,0,0,0,2.66-.65,3.567,3.567,0,0,0,1.31-1.68,7.186,7.186,0,0,0,.43-2.33q0.041-1.3.04-2.62V27.22q0-.37.01-0.75t0.03-.79c0.013-.273.027-0.583,0.04-0.93h-1.26Zm-0.19,6.41a4.367,4.367,0,0,1-.55,1.38,2.9,2.9,0,0,1-1.01.98,3,3,0,0,1-4.02-.91,4.063,4.063,0,0,1-.57-1.32,6.407,6.407,0,0,1-.18-1.52,7.055,7.055,0,0,1,.17-1.54,4.116,4.116,0,0,1,.56-1.36,3.06,3.06,0,0,1,1.01-.97,2.918,2.918,0,0,1,1.52-.37,2.762,2.762,0,0,1,1.43.36,3.127,3.127,0,0,1,1.01.95,4.394,4.394,0,0,1,.6,1.32,5.483,5.483,0,0,1,.2,1.45A7.189,7.189,0,0,1,622.07,31.16Zm9.25-5.21V24.73c-0.093-.013-0.187-0.023-0.28-0.03s-0.187-.01-0.28-0.01a3.936,3.936,0,0,0-1.78.38,3.381,3.381,0,0,0-1.32,1.26l-0.08-1.58h-1.2q0.019,0.74.04,1.48t0.02,1.48v7.14h1.22V29.13a6.063,6.063,0,0,1,.14-1.35,2.569,2.569,0,0,1,.47-1.03,2.156,2.156,0,0,1,.87-0.65,3.489,3.489,0,0,1,1.36-.23,3.988,3.988,0,0,1,.82.08h0Zm9.44,4.04a10.962,10.962,0,0,0-.18-2,5.024,5.024,0,0,0-.65-1.737,3.566,3.566,0,0,0-1.26-1.224,3.9,3.9,0,0,0-1.99-.462,4.553,4.553,0,0,0-2.06.431,4.086,4.086,0,0,0-1.43,1.172,4.946,4.946,0,0,0-.84,1.723,7.753,7.753,0,0,0-.27,2.064,7.4,7.4,0,0,0,.26,1.994,4.613,4.613,0,0,0,.8,1.623,3.79,3.79,0,0,0,1.38,1.092,4.611,4.611,0,0,0,2,.4,4.315,4.315,0,0,0,2.79-.86,4.119,4.119,0,0,0,1.39-2.56h-1.16a3.191,3.191,0,0,1-.93,1.83,2.7,2.7,0,0,1-1.93.69,3.046,3.046,0,0,1-2.52-1.21,3.855,3.855,0,0,1-.63-1.26,5.154,5.154,0,0,1-.21-1.47V29.99h7.44Zm-1.24-.9h-6.16a5.41,5.41,0,0,1,.29-1.33,3.766,3.766,0,0,1,.63-1.14,3.07,3.07,0,0,1,.98-0.79,3.133,3.133,0,0,1,2.61-.03,2.534,2.534,0,0,1,.91.74,3.45,3.45,0,0,1,.55,1.08,4.236,4.236,0,0,1,.19,1.27v0.2Zm11.38,0.9a10.962,10.962,0,0,0-.18-2,5.024,5.024,0,0,0-.65-1.737,3.566,3.566,0,0,0-1.26-1.224,3.9,3.9,0,0,0-1.99-.462,4.553,4.553,0,0,0-2.06.431,4.086,4.086,0,0,0-1.43,1.172,4.946,4.946,0,0,0-.84,1.723,7.753,7.753,0,0,0-.27,2.064,7.4,7.4,0,0,0,.26,1.994,4.613,4.613,0,0,0,.8,1.623,3.79,3.79,0,0,0,1.38,1.092,4.611,4.611,0,0,0,2,.4,4.315,4.315,0,0,0,2.79-.86,4.119,4.119,0,0,0,1.39-2.56h-1.16a3.191,3.191,0,0,1-.93,1.83,2.7,2.7,0,0,1-1.93.69,3.046,3.046,0,0,1-2.52-1.21,3.855,3.855,0,0,1-.63-1.26,5.154,5.154,0,0,1-.21-1.47V29.99h7.44Zm-1.24-.9H643.5a5.41,5.41,0,0,1,.29-1.33,3.766,3.766,0,0,1,.63-1.14,3.07,3.07,0,0,1,.98-0.79,3.133,3.133,0,0,1,2.61-.03,2.534,2.534,0,0,1,.91.74,3.45,3.45,0,0,1,.55,1.08,4.236,4.236,0,0,1,.19,1.27v0.2Zm7.64,5.74V33.79l-0.49.08a2.768,2.768,0,0,1-.43.04,2.326,2.326,0,0,1-.76-0.1,0.868,0.868,0,0,1-.43-0.31,1.144,1.144,0,0,1-.19-0.53,5.969,5.969,0,0,1-.04-0.74V25.65h2.26v-0.9h-2.26V22.13l-1.22.54v2.08h-2v0.9h2v7.12a1.9,1.9,0,0,0,2.14,2.16q0.36,0,.71-0.03t0.71-.07h0Zm14.98-10.08h-1.22l-3.36,8.46-3.38-8.46h-1.46l4.24,10.04-1.6,3.86h1.24Zm9.74,2.93a4.752,4.752,0,0,0-.89-1.65,4,4,0,0,0-1.48-1.09,5.065,5.065,0,0,0-2.05-.39,4.889,4.889,0,0,0-2.04.4,4.219,4.219,0,0,0-1.48,1.1,4.805,4.805,0,0,0-.91,1.64,6.469,6.469,0,0,0-.31,2.04,7.038,7.038,0,0,0,.3,2.09,4.938,4.938,0,0,0,.89,1.69,4.2,4.2,0,0,0,1.48,1.14,4.8,4.8,0,0,0,2.07.42,4.548,4.548,0,0,0,2.02-.43,4.317,4.317,0,0,0,1.48-1.17,5.2,5.2,0,0,0,.91-1.71,6.617,6.617,0,0,0,.31-2.03A6.774,6.774,0,0,0,682.02,27.68Zm-1.2,3.607a4.677,4.677,0,0,1-.61,1.417,3.226,3.226,0,0,1-1.06,1.017,2.962,2.962,0,0,1-1.55.389,3,3,0,0,1-1.57-.389,3.368,3.368,0,0,1-1.07-1.007,4.261,4.261,0,0,1-.61-1.407,6.726,6.726,0,0,1-.19-1.586,6.055,6.055,0,0,1,.2-1.566,3.982,3.982,0,0,1,.62-1.327,3.14,3.14,0,0,1,1.07-.928,3.614,3.614,0,0,1,3.1,0,3.14,3.14,0,0,1,1.07.928,3.843,3.843,0,0,1,.61,1.337A6.348,6.348,0,0,1,680.82,31.287ZM692.6,34.85q-0.06-1.5-.06-3.02V24.75h-1.22v5.28a6.95,6.95,0,0,1-.15,1.46,3.552,3.552,0,0,1-.51,1.24,2.737,2.737,0,0,1-.94.87,2.878,2.878,0,0,1-1.44.33,2.646,2.646,0,0,1-1.3-.28,2.11,2.11,0,0,1-.79-0.76,3.06,3.06,0,0,1-.39-1.11,8.441,8.441,0,0,1-.1-1.33v-5.7h-1.22v6.18a7.228,7.228,0,0,0,.18,1.7,3.163,3.163,0,0,0,.6,1.26,2.618,2.618,0,0,0,1.11.79,4.718,4.718,0,0,0,1.71.27,3.92,3.92,0,0,0,1.88-.41,4.216,4.216,0,0,0,1.4-1.31l0.04,1.62h1.2Zm14.819,0h1.719c-0.04-1.74-.04-3.479-0.04-5.2v-4.9h-1.759v5.339c0,1.84-.66,3.539-2.78,3.539-2.14,0-2.34-1.52-2.34-3.279v-5.6H700.46v6.279c0,2.5.96,3.939,3.619,3.939a3.69,3.69,0,0,0,3.26-1.72Zm14.159-5.2c0-2.66-1.3-5.079-4.259-5.079a3.652,3.652,0,0,0-3.42,1.92l-0.06-1.74H712.1c0.06,0.96.06,1.94,0.06,2.88V38.649h1.759V33.33a3.583,3.583,0,0,0,3.18,1.7C720.138,35.03,721.578,32.371,721.578,29.651Zm-1.84.12c0,1.94-.739,4.019-3.019,4.019-2.18,0-2.82-2.14-2.82-3.959,0-1.92.78-4.019,3.02-4.019C719.079,25.812,719.738,27.971,719.738,29.771Zm13.38-.02c0-3.08-1.74-5.219-4.939-5.219-3.139,0-5,2.18-5,5.219,0,3.06,1.76,5.319,4.979,5.319C731.3,35.07,733.118,32.73,733.118,29.751Zm-1.84,0c0,1.92-.879,4.119-3.119,4.119-2.28,0-3.119-2.16-3.119-4.119,0-1.98.859-3.959,3.119-3.959S731.278,27.771,731.278,29.751Zm11.061,5.1H744.1V28.571c0-2.48-.96-3.939-3.6-3.939a3.751,3.751,0,0,0-3.3,1.74l-0.06-1.62H735.4c0.02,0.58.06,1.74,0.06,2.6v7.5h1.759V29.811c0-1.86.6-3.839,2.78-3.839,2.14,0,2.34,1.52,2.34,3.28v5.6Zm16.78,0h1.539a12.23,12.23,0,0,1-.32-2.959V28.171c0-2.64-1.259-3.619-3.839-3.619-1.9,0-3.679.72-3.779,2.919h1.719a1.784,1.784,0,0,1,2.1-1.78c1.66,0,2.22.88,2.22,2.44v0.6c-0.28-.02-0.64-0.04-1-0.04-2.46,0-5.779.36-5.779,3.379,0,2.06,1.66,3,3.539,3a3.762,3.762,0,0,0,3.42-1.64A11.484,11.484,0,0,0,759.119,34.85Zm-0.36-5.059c0,2.04-.26,4.1-2.8,4.1a1.994,1.994,0,0,1-2.219-1.9c0-2.06,2.559-2.24,4.119-2.24A7.912,7.912,0,0,1,758.759,29.791Zm10.12-3.4v-1.66a4.94,4.94,0,0,0-.56-0.04,3.288,3.288,0,0,0-3.08,1.68l-0.08-1.62H763.44c0.04,0.98.06,1.98,0.06,2.96V34.85h1.759V29.411c0-1.92.68-3.1,2.76-3.1A5.973,5.973,0,0,1,768.879,26.392Zm7.06,0v-1.66a4.94,4.94,0,0,0-.56-0.04,3.288,3.288,0,0,0-3.08,1.68l-0.08-1.62H770.5c0.04,0.98.06,1.98,0.06,2.96V34.85h1.759V29.411c0-1.92.68-3.1,2.76-3.1A5.973,5.973,0,0,1,775.939,26.392Zm1.581-4.219h1.959v-1.78H777.52v1.78Zm0.1,12.678h1.759v-10.1H777.62v10.1Zm9.4,0,4.2-10.1h-1.8l-3.2,8.4-3.139-8.4h-2l4.1,10.1h1.84Zm11.92,0h1.539a12.23,12.23,0,0,1-.32-2.959V28.171c0-2.64-1.259-3.619-3.839-3.619-1.9,0-3.679.72-3.779,2.919h1.719a1.784,1.784,0,0,1,2.1-1.78c1.66,0,2.22.88,2.22,2.44v0.6c-0.28-.02-0.64-0.04-1-0.04-2.46,0-5.779.36-5.779,3.379,0,2.06,1.66,3,3.539,3a3.762,3.762,0,0,0,3.42-1.64A11.484,11.484,0,0,0,798.939,34.85Zm-0.36-5.059c0,2.04-.26,4.1-2.8,4.1a1.994,1.994,0,0,1-2.219-1.9c0-2.06,2.559-2.24,4.119-2.24A7.912,7.912,0,0,1,798.579,29.791Zm4.741,5.059h1.759V20.393H803.32V34.85Zm12-11.038c0-2.76-2.239-3.659-4.639-3.659a13.008,13.008,0,0,0-2.3.24v1.46a7.5,7.5,0,0,1,2.079-.32c1.54,0,2.98.62,2.98,2.36,0,1.38-.94,2.12-1.94,3.02-1.34,1.22-1.62,1.54-1.62,2.939v1.44h1.54v-1.44a1.72,1.72,0,0,1,.82-1.52C813.959,26.771,815.318,25.612,815.318,23.812ZM809.639,34.85h2.02V32.83h-2.02v2.02Z" transform="translate(-405)"/>
  </g>
</svg>
