<svg xmlns="http://www.w3.org/2000/svg" width="728" height="90" viewBox="0 0 728 90">
  <defs>
    <style>
      .cls-1 {
        fill: #fff;
        fill-rule: evenodd;
      }
    </style>
  </defs>
  <g id="International_Engage_Banner_728x90_Frame_2" data-name="International Engage Banner 728x90 Frame 2">
    <path class="cls-1" d="M1587.89,27.719h-0.61V23.553h-1.52V23.078h3.66v0.475h-1.53v4.166Zm1.82-1.451a1.026,1.026,0,0,0,1.01,1.143,0.814,0.814,0,0,0,.86-0.738h0.56a1.34,1.34,0,0,1-1.47,1.117,1.454,1.454,0,0,1-1.54-1.637,1.538,1.538,0,0,1,1.59-1.734c1.12,0,1.44.841,1.44,1.785h-2.45v0.064Zm0.99-1.463a1,1,0,0,0-.97,1.027h1.85A0.9,0.9,0,0,0,1590.7,24.805Zm3.79,0.173a0.829,0.829,0,0,0-.91.995v1.746H1593V25.428c0-.315-0.01-0.636-0.02-0.95h0.57l0.02,0.52a1.1,1.1,0,0,1,1.02-.54c0.06,0,.13.007,0.19,0.013V25A2.271,2.271,0,0,0,1594.49,24.978Zm5.34,0.828a0.751,0.751,0,0,0-.77-0.937,0.865,0.865,0,0,0-.86,1.053v1.8h-0.58V25.838a0.768,0.768,0,0,0-.77-0.969,0.917,0.917,0,0,0-.87,1.053v1.8h-0.58V25.588c0-.366-0.01-0.738-0.02-1.11h0.58l0.02,0.539a1.152,1.152,0,0,1,1.05-.578,1.026,1.026,0,0,1,1.07.668,1.208,1.208,0,0,1,1.16-.668,1.111,1.111,0,0,1,1.15,1.38v1.9h-0.58V25.806Zm2.72,1.984a1.086,1.086,0,0,1-1.3-1.053h0.58a0.77,0.77,0,0,0,1.5.109,0.712,0.712,0,0,0-.72-0.565l-0.27-.064a1.017,1.017,0,0,1-1-.892,1.088,1.088,0,0,1,1.27-.924,1.038,1.038,0,0,1,1.22.982h-0.57a0.606,0.606,0,0,0-.67-0.6,0.592,0.592,0,0,0-.68.481,0.715,0.715,0,0,0,.71.539l0.26,0.064a1.023,1.023,0,0,1,1.03.912A1.152,1.152,0,0,1,1602.55,27.79Zm6.19-.526a1.261,1.261,0,0,1-1.13.526,1.015,1.015,0,0,1-1.17-.963c0-.969,1.1-1.085,1.91-1.085,0.12,0,.24.006,0.33,0.013V25.562a0.653,0.653,0,0,0-.73-0.783,0.59,0.59,0,0,0-.7.572h-0.57a1.062,1.062,0,0,1,1.25-.937,1.045,1.045,0,0,1,1.27,1.162V26.77a3.6,3.6,0,0,0,.11.95h-0.51A3.558,3.558,0,0,1,1608.74,27.264Zm-0.36-1.181c-0.51,0-1.36.058-1.36,0.719a0.656,0.656,0,0,0,.74.61c0.84,0,.92-0.661.92-1.316A2.665,2.665,0,0,0,1608.38,26.082Zm4.21-.16c0-.565-0.06-1.053-0.77-1.053a1.019,1.019,0,0,0-.92,1.233v1.618h-0.58V25.312c0-.276-0.02-0.648-0.02-0.834h0.57l0.02,0.52a1.25,1.25,0,0,1,1.09-.559,1.076,1.076,0,0,1,1.2,1.265v2.016h-0.59v-1.8Zm3.94,1.3a1.187,1.187,0,0,1-1.07.552,1.5,1.5,0,0,1-1.46-1.7,1.482,1.482,0,0,1,1.44-1.663,1.156,1.156,0,0,1,1.09.578V23.078h0.58v3.7c0,0.308,0,.629.02,0.944h-0.57Zm-1-2.414a1.066,1.066,0,0,0-.92,1.278,1.074,1.074,0,0,0,1,1.277,1.06,1.06,0,0,0,.93-1.265A1.11,1.11,0,0,0,1615.53,24.811Zm5.97,2.979a1.509,1.509,0,0,1-1.62-1.656,1.58,1.58,0,0,1,1.65-1.746,1.211,1.211,0,0,1,1.36,1.137h-0.57a0.725,0.725,0,0,0-.79-0.738,1.112,1.112,0,0,0-1.04,1.322,1.116,1.116,0,0,0,1.01,1.3,0.793,0.793,0,0,0,.84-0.777h0.54l0.02,0.007A1.247,1.247,0,0,1,1621.5,27.79Zm3.57,0a1.692,1.692,0,0,1,.01-3.383,1.533,1.533,0,0,1,1.63,1.675A1.587,1.587,0,0,1,1625.07,27.79Zm0-2.979a1.092,1.092,0,0,0-1.03,1.271,1.141,1.141,0,0,0,1.03,1.323,1.154,1.154,0,0,0,1.03-1.323A1.092,1.092,0,0,0,1625.07,24.811Zm4.76,1.111c0-.565-0.07-1.053-0.78-1.053a1.019,1.019,0,0,0-.92,1.233v1.618h-0.58V25.312c0-.276-0.01-0.648-0.02-0.834h0.58l0.02,0.52a1.25,1.25,0,0,1,1.09-.559,1.074,1.074,0,0,1,1.19,1.265v2.016h-0.58v-1.8Zm3.94,1.3a1.214,1.214,0,0,1-1.08.552,1.5,1.5,0,0,1-1.46-1.7,1.488,1.488,0,0,1,1.44-1.663,1.162,1.162,0,0,1,1.1.578V23.078h0.58v3.7c0,0.308,0,.629.02,0.944h-0.57Zm-1-2.414a1.072,1.072,0,0,0-.93,1.278,1.08,1.08,0,0,0,1,1.277,1.06,1.06,0,0,0,.93-1.265A1.1,1.1,0,0,0,1632.77,24.811Zm2.63-1.733h0.65v0.571h-0.65V23.078Zm0.04,1.4h0.58v3.242h-0.58V24.478Zm2.69,3.274a0.684,0.684,0,0,1-.82-0.751V24.869h-0.65V24.478h0.65V23.849l0.59-.238v0.867h0.74v0.391h-0.74v1.907c0,0.392.05,0.539,0.45,0.539a1.7,1.7,0,0,0,.31-0.032v0.43A3.706,3.706,0,0,1,1638.13,27.752Zm1.22-4.674h0.64v0.571h-0.64V23.078Zm0.03,1.4h0.58v3.242h-0.58V24.478Zm3.07,3.312a1.692,1.692,0,0,1,.01-3.383,1.533,1.533,0,0,1,1.63,1.675A1.587,1.587,0,0,1,1642.45,27.79Zm0-2.979a1.092,1.092,0,0,0-1.03,1.271,1.141,1.141,0,0,0,1.03,1.323,1.154,1.154,0,0,0,1.03-1.323A1.092,1.092,0,0,0,1642.45,24.811Zm4.76,1.111c0-.565-0.07-1.053-0.78-1.053a1.013,1.013,0,0,0-.91,1.233v1.618h-0.59V25.312c0-.276-0.01-0.648-0.02-0.834h0.58l0.02,0.52a1.25,1.25,0,0,1,1.09-.559,1.074,1.074,0,0,1,1.19,1.265v2.016h-0.58v-1.8Zm2.72,1.868a1.081,1.081,0,0,1-1.3-1.053h0.58a0.648,0.648,0,0,0,.75.661,0.655,0.655,0,0,0,.75-0.552,0.712,0.712,0,0,0-.72-0.565l-0.27-.064a1.02,1.02,0,0,1-1.01-.892,1.088,1.088,0,0,1,1.27-.924,1.043,1.043,0,0,1,1.23.982h-0.58a0.7,0.7,0,0,0-1.35-.115,0.729,0.729,0,0,0,.72.539l0.26,0.064a1.02,1.02,0,0,1,1.02.912A1.148,1.148,0,0,1,1649.93,27.79Zm6.19-.526a1.261,1.261,0,0,1-1.13.526,1.01,1.01,0,0,1-1.17-.963c0-.969,1.09-1.085,1.91-1.085,0.12,0,.23.006,0.33,0.013V25.562a0.66,0.66,0,0,0-.74-0.783,0.581,0.581,0,0,0-.69.572h-0.57a1.287,1.287,0,0,1,2.52.225V26.77a3.6,3.6,0,0,0,.11.95h-0.51A2.375,2.375,0,0,1,1656.12,27.264Zm-0.36-1.181c-0.52,0-1.36.058-1.36,0.719a0.652,0.652,0,0,0,.73.61c0.84,0,.93-0.661.93-1.316A2.756,2.756,0,0,0,1655.76,26.082Zm3.57,1.695a1.174,1.174,0,0,1-1.05-.546v1.708h-0.59V25.4c0-.3,0-0.616-0.02-0.925h0.58l0.02,0.558a1.216,1.216,0,0,1,1.13-.616,1.436,1.436,0,0,1,1.41,1.631A1.548,1.548,0,0,1,1659.33,27.777Zm-0.06-2.959a1.1,1.1,0,0,0-1,1.29,1.066,1.066,0,0,0,.93,1.271,1.088,1.088,0,0,0,1-1.29A1.075,1.075,0,0,0,1659.27,24.818Zm4.01,2.959a1.2,1.2,0,0,1-1.05-.546v1.708h-0.58V25.4c0-.3,0-0.616-0.02-0.925h0.58l0.02,0.558a1.206,1.206,0,0,1,1.13-.616,1.436,1.436,0,0,1,1.41,1.631A1.549,1.549,0,0,1,1663.28,27.777Zm-0.05-2.959a1.1,1.1,0,0,0-1,1.29,1.066,1.066,0,0,0,.93,1.271,1.094,1.094,0,0,0,1-1.29A1.075,1.075,0,0,0,1663.23,24.818Zm2.38-1.74h0.58v4.641h-0.58V23.078Zm2.08,5.861,0.55-1.226-1.42-3.236h0.66l1.05,2.651,1.05-2.651h0.59l-1.89,4.461h-0.59Zm2.86-1.855h0.66v0.636h-0.66V27.084Z" transform="translate(-1163)"/>
  </g>
</svg>
